<svg width="34" height="34" viewBox="0 0 45 45" fill="none" xmlns="http://www.w3.org/2000/svg">
<g id="&#240;&#159;&#166;&#134; icon &#34;Facebook v1 icon&#34;">
<path id="Vector" d="M22.5 45C34.9264 45 45 34.9264 45 22.5C45 10.0736 34.9264 0 22.5 0C10.0736 0 0 10.0736 0 22.5C0 34.9264 10.0736 45 22.5 45Z" fill="#3C5A99"/>
<path id="Vector_2" d="M24.2471 33.7505V23.5024H27.7012L28.2197 19.4902H24.2471V16.937C24.2471 15.7769 24.5679 14.9902 26.229 14.9902H28.334V11.4131C27.9692 11.3647 26.7124 11.2549 25.249 11.2549C22.1948 11.2549 20.103 13.1182 20.103 16.5415V19.4946H16.6621V23.5068H20.103V33.7505H24.2471Z" fill="white"/>
</g>
</svg>
