<svg width="34" height="34" viewBox="0 0 45 45" fill="none" xmlns="http://www.w3.org/2000/svg">
<g id="&#240;&#159;&#166;&#134; icon &#34;Instagram icon&#34;">
<path id="Vector" d="M22.5 45C34.9264 45 45 34.9264 45 22.5C45 10.0736 34.9264 0 22.5 0C10.0736 0 0 10.0736 0 22.5C0 34.9264 10.0736 45 22.5 45Z" fill="#E4405F"/>
<path id="Vector_2" d="M22.5005 11.25C19.4463 11.25 19.064 11.2632 17.8643 11.3159C16.6645 11.373 15.8516 11.562 15.1353 11.8389C14.397 12.1245 13.7686 12.5112 13.1401 13.1353C12.5117 13.7593 12.1294 14.3877 11.8437 15.1304C11.5669 15.8467 11.3779 16.6641 11.3208 17.8594C11.2637 19.0591 11.2549 19.4414 11.2549 22.4956C11.2549 25.5498 11.2681 25.9321 11.3208 27.1318C11.3779 28.3271 11.5669 29.1445 11.8437 29.8608C12.1294 30.5991 12.5161 31.2275 13.1401 31.856C13.7642 32.48 14.3926 32.8667 15.1353 33.1523C15.8516 33.4292 16.6689 33.6182 17.8643 33.6753C19.064 33.7324 19.4463 33.7412 22.5005 33.7412C25.5547 33.7412 25.937 33.728 27.1367 33.6753C28.332 33.6182 29.1494 33.4292 29.8657 33.1523C30.604 32.8667 31.2324 32.48 31.8608 31.856C32.4849 31.2319 32.8716 30.6035 33.1572 29.8608C33.4341 29.1445 33.623 28.3271 33.6802 27.1318C33.7373 25.9321 33.7461 25.5498 33.7461 22.4956C33.7461 19.4414 33.7329 19.0591 33.6802 17.8594C33.623 16.6641 33.4341 15.8467 33.1572 15.1304C32.8716 14.3921 32.4849 13.7637 31.8608 13.1353C31.2368 12.5112 30.6084 12.1245 29.8657 11.8389C29.1494 11.562 28.332 11.373 27.1367 11.3159C25.937 11.2632 25.5547 11.25 22.5005 11.25ZM22.5005 13.2759C25.502 13.2759 25.8623 13.2891 27.0488 13.3418C28.1475 13.3945 28.7407 13.5747 29.1362 13.7329C29.6636 13.9351 30.0371 14.1812 30.4326 14.5723C30.8237 14.9678 31.0698 15.3413 31.272 15.8687C31.4258 16.2642 31.6103 16.8574 31.6587 17.9561C31.7114 19.1426 31.7246 19.4985 31.7246 22.5044C31.7246 25.5103 31.7114 25.8662 31.6543 27.0527C31.5972 28.1514 31.4126 28.7446 31.2588 29.1401C31.0478 29.6675 30.8105 30.041 30.415 30.4365C30.0239 30.8276 29.6416 31.0737 29.123 31.2759C28.7275 31.4297 28.1255 31.6143 27.0269 31.6626C25.8315 31.7153 25.48 31.7285 22.4697 31.7285C19.4595 31.7285 19.1079 31.7153 17.9126 31.6582C16.814 31.6011 16.2119 31.4165 15.8164 31.2627C15.2847 31.0518 14.9155 30.8145 14.5244 30.4189C14.1289 30.0278 13.8784 29.6455 13.6807 29.1269C13.5269 28.7314 13.3423 28.1294 13.2852 27.0308C13.2412 25.8486 13.228 25.4839 13.228 22.4912C13.228 19.4941 13.2412 19.1294 13.2852 17.9341C13.3423 16.8354 13.5225 16.2334 13.6807 15.8379C13.8784 15.3018 14.1289 14.937 14.5244 14.5415C14.9155 14.1504 15.2847 13.8955 15.8164 13.6978C16.2119 13.5439 16.8008 13.3594 17.8994 13.3022C19.0947 13.2583 19.4463 13.2451 22.4565 13.2451L22.5005 13.2759ZM22.5005 16.7212C19.3101 16.7212 16.7217 19.3096 16.7217 22.5C16.7217 25.6904 19.3101 28.2788 22.5005 28.2788C25.6909 28.2788 28.2793 25.6904 28.2793 22.5C28.2793 19.3096 25.6909 16.7212 22.5005 16.7212ZM22.5005 26.2485C20.4307 26.2485 18.752 24.5698 18.752 22.5C18.752 20.4302 20.4307 18.7515 22.5005 18.7515C24.5703 18.7515 26.249 20.4302 26.249 22.5C26.249 24.5698 24.5703 26.2485 22.5005 26.2485ZM29.8569 16.4971C29.8569 17.2441 29.2505 17.8462 28.5078 17.8462C27.7607 17.8462 27.1587 17.2397 27.1587 16.4971C27.1587 15.7544 27.7651 15.1479 28.5078 15.1479C29.2505 15.1436 29.8569 15.75 29.8569 16.4971Z" fill="white"/>
</g>
</svg>
