<svg width="34" height="34" viewBox="0 0 45 45" fill="none" xmlns="http://www.w3.org/2000/svg">
<g id="&#240;&#159;&#166;&#134; icon &#34;mail&#34;">
<path id="Vector" d="M22.5 45C34.9264 45 45 34.9264 45 22.5C45 10.0736 34.9264 0 22.5 0C10.0736 0 0 10.0736 0 22.5C0 34.9264 10.0736 45 22.5 45Z" fill="#1F3042"/>
<path id="Vector_2" opacity="0.2" d="M36.5625 30.9375C36.5625 32.4844 35.2969 33.75 33.75 33.75H11.25C9.70312 33.75 8.4375 32.4844 8.4375 30.9375V16.875C8.4375 15.3281 9.70312 14.0625 11.25 14.0625H33.75C35.2969 14.0625 36.5625 15.3281 36.5625 16.875V30.9375Z" fill="#231F20"/>
<path id="Vector_3" d="M36.5625 29.5312C36.5625 31.0781 35.2969 32.3438 33.75 32.3438H11.25C9.70312 32.3438 8.4375 31.0781 8.4375 29.5312V15.4688C8.4375 13.9219 9.70312 12.6562 11.25 12.6562H33.75C35.2969 12.6562 36.5625 13.9219 36.5625 15.4688V29.5312Z" fill="#E0E0D1"/>
<path id="Vector_4" opacity="0.2" d="M24.9609 21.2344C23.625 19.7578 21.375 19.7578 20.0391 21.2344L9.14063 30.375C9 30.5156 8.92969 30.6562 8.78906 30.7969C9.28125 31.7109 10.1953 32.3438 11.1797 32.3438H33.6797C34.7344 32.3438 35.5781 31.7109 36.0703 30.7969C36 30.6562 35.8594 30.5156 35.7188 30.375L24.9609 21.2344Z" fill="#231F20"/>
<path id="Vector_5" d="M24.9609 22.4978C23.625 21.1619 21.375 21.1619 20.0391 22.4978L9.14063 30.5837C9 30.7244 8.92969 30.7947 8.78906 30.9353C9.28125 31.7791 10.1953 32.2712 11.1797 32.2712H33.6797C34.7344 32.2712 35.5781 31.7087 36.0703 30.9353C36 30.7947 35.8594 30.7244 35.7188 30.5837L24.9609 22.4978Z" fill="#E0E0D1"/>
<path id="Vector_6" opacity="0.2" d="M8.85986 14.2031C9.35205 13.2891 10.2661 12.6562 11.2505 12.6562H33.7505C34.8052 12.6562 35.6489 13.2891 36.1411 14.2031C36.0708 14.3438 35.9302 14.4844 35.7896 14.625L24.9614 23.7656C23.6255 25.2422 21.3755 25.2422 20.0396 23.7656L8.85986 14.2031Z" fill="#231F20"/>
<path id="Vector_7" d="M20.0396 22.5005C21.3755 23.8364 23.6255 23.8364 24.9614 22.5005L35.8599 14.4146C36.0005 14.2739 36.0708 14.2036 36.2114 14.063C35.7193 13.2192 34.8052 12.7271 33.8208 12.7271H11.2505C10.1958 12.7271 9.35205 13.2896 8.85986 14.063C8.93018 14.2036 9.0708 14.2739 9.21143 14.4146L20.0396 22.5005Z" fill="white"/>
</g>
</svg>
