<svg width="34" height="34" viewBox="0 0 45 45" fill="none" xmlns="http://www.w3.org/2000/svg">
<g id="&#240;&#159;&#166;&#134; icon &#34;phone&#34;">
<path id="Vector" d="M22.5 45C34.9264 45 45 34.9264 45 22.5C45 10.0736 34.9264 0 22.5 0C10.0736 0 0 10.0736 0 22.5C0 34.9264 10.0736 45 22.5 45Z" fill="#1F3042"/>
<path id="Vector_2" opacity="0.2" d="M20.3906 17.7891C20.1094 14.4141 16.5937 12.7969 16.4531 12.7266C16.2422 12.6563 16.1016 12.6562 15.9609 12.6562C11.8828 13.3594 11.3203 15.6797 11.25 15.8203V16.2422C16.1016 31.289 26.1563 34.0312 29.4609 34.9453C29.7422 35.0156 29.9531 35.0859 30.0938 35.1562C30.1641 35.1562 30.2344 35.2265 30.3047 35.2265C30.4453 35.2265 30.5156 35.2265 30.6562 35.1562C30.7266 35.0859 33.1172 33.9609 33.75 30.3047C33.75 30.164 33.75 29.9531 33.6797 29.8125C33.6094 29.7422 32.3437 27.3516 28.8984 26.5078C28.6875 26.4375 28.4062 26.5078 28.1953 26.6484C27.0703 27.5625 25.5938 28.5469 24.9609 28.6875C20.6016 26.5781 18.1406 22.4297 18.0703 21.6562C18 21.2344 18.9844 19.6875 20.1797 18.4219C20.3203 18.2812 20.3906 18 20.3906 17.7891Z" fill="#231F20"/>
<path id="Vector_3" d="M20.3906 16.3828C20.1094 13.0078 16.5937 11.3906 16.4531 11.3203C16.2422 11.25 16.1016 11.25 15.9609 11.25C11.8828 11.9531 11.3203 14.2734 11.25 14.4141V14.8359C16.1016 29.8828 26.1563 32.625 29.4609 33.539C29.7422 33.6094 29.9531 33.6797 30.0938 33.75C30.1641 33.75 30.2344 33.8203 30.3047 33.8203C30.4453 33.8203 30.5156 33.8203 30.6562 33.75C30.7266 33.6797 33.1172 32.5547 33.75 28.8984C33.75 28.7578 33.75 28.5469 33.6797 28.4062C33.6094 28.3359 32.3437 25.9453 28.8984 25.1016C28.6875 25.0312 28.4062 25.1016 28.1953 25.2422C27.0703 26.1562 25.5938 27.1406 24.9609 27.2812C20.6016 25.1719 18.1406 21.0234 18.0703 20.25C18 19.8281 18.9844 18.2812 20.1797 17.0156C20.3203 16.875 20.3906 16.5937 20.3906 16.3828Z" fill="white"/>
</g>
</svg>
