<svg width="34" height="34" viewBox="0 0 45 45" fill="none" xmlns="http://www.w3.org/2000/svg">
<g id="&#240;&#159;&#166;&#134; icon &#34;youtube round 2 icon&#34;">
<g id="Group">
<path id="Vector" d="M22.5 45C34.9264 45 45 34.9264 45 22.5C45 10.0736 34.9264 0 22.5 0C10.0736 0 0 10.0736 0 22.5C0 34.9264 10.0736 45 22.5 45Z" fill="#E43535"/>
<path id="Vector_2" fill-rule="evenodd" clip-rule="evenodd" d="M29.7784 29.9995H15.9697C14.1983 29.9995 12.749 28.5189 12.749 26.7092V19.0398C12.749 17.2302 14.1983 15.7495 15.9697 15.7495H29.7784C31.5497 15.7495 32.999 17.2302 32.999 19.0398V26.7092C32.999 28.5189 31.5497 29.9995 29.7784 29.9995ZM21.0352 20.1187V26.2046L26.5489 23.0625L21.0352 20.1187Z" fill="white"/>
</g>
</g>
</svg>
