<?xml version="1.0" encoding="utf-8"?>
<!-- Generator: Adobe Illustrator 27.3.1, SVG Export Plug-In . SVG Version: 6.00 Build 0)  -->
<svg version="1.1" id="Layer_1" xmlns="http://www.w3.org/2000/svg" xmlns:xlink="http://www.w3.org/1999/xlink" x="0px" y="0px"
	 viewBox="0 0 932 593" style="enable-background:new 0 0 932 593;" xml:space="preserve">
<style type="text/css">
	.st0{fill:#1F3042;stroke:#FFFFFF;stroke-width:0.8216;stroke-linecap:round;stroke-miterlimit:3.999;}
	.st1{fill:#FFFFFF;}
	.st2{fill:#FFFFFF;stroke:#FFFFFF;stroke-width:1.0269;}
	.st3{fill:#EC6A36;stroke:#FFFFFF;stroke-width:0.8216;stroke-linecap:round;stroke-miterlimit:3.999;}
	.st4{fill:#1F3042;}
	.st5{fill:none;stroke:#FFFFFF;stroke-width:0.8216;stroke-linecap:round;stroke-miterlimit:3.999;}
	.st6{fill:none;stroke:#FFFFFF;stroke-width:1.0269;}
</style>
<path class="st0" d="M244.4,511.6l1.9-3.4l2.1-0.3l0.3,0.8l-2,2.9L244.4,511.6L244.4,511.6z M254.1,508.1l5.9,2.4l2-0.3l1.5-3.7
	l-0.6-3.2l-4-0.4l-3.8,1.7L254.1,508.1L254.1,508.1z M283.4,517.6l3.5,5.2l2.3-0.3l1.1-0.5l1.4,1.2l3.6-0.2l0.9-1.4l-2.8-1.7
	l-1.8-3.5l-2-3.4L284,516L283.4,517.6z M302.7,526.1l1.2-1.8l4.5,0.9l0.6-0.5l5.9,0.6l-0.3,1.2l-2.5,1.4l-4.2-0.3L302.7,526.1
	L302.7,526.1z M307.8,531l1.8,3.7l2.9-1.1l0.3-1.5l-1.5-2l-3.6-0.3L307.8,531L307.8,531z M314.4,530l2.2-2.8l4.5,2.3l4.2,1.1
	l4.2,2.6v1.8l-3.4,1.7l-4.6,0.9l-2.3-1.4L314.4,530L314.4,530z M330.3,544.7l1.5-1.2l3.2,1.5l7.3,3.4l3.2,2l1.5,2.3l1.8,4.1l3.8,2.5
	l-0.3,1.2l-3.7,3.1l-4,1.4l-1.4-0.6l-2.9,1.7l-2.3,3.1L336,572l-1.7-0.2l-3.4-2.5l-0.3-4.3l0.6-2.3l-1.5-5.4l-2-1.7l-0.2-2.5
	l2.2-0.9l2-2.9l0.5-0.9l-1.5-1.7L330.3,544.7L330.3,544.7z"/>
<path class="st1" d="M297.1,550.8v-11h1.5v4.5h5.7v-4.5h1.5v11h-1.5v-5.2h-5.7v5.2H297.1z M308.4,550.8v-11h1.5v11H308.4z"/>
<path class="st0" d="M172.8,449.2l-0.3,81.3l1.5,0.9l2.9,0.2l1.4-1.1h2.5l0.2,2.7l6.6,6.5l0.5,2.5l3.2-1.8l0.6-0.2l0.3-2.9l1.4-1.5
	l1.1-0.2l1.8-1.4l2.9,2l0.6,2.8l1.8,1.1l1.1,2.3l3.7,1.7l3.2,5.7l2.6,3.7l2.1,2.6l1.4,3.5l4.8,1.7l4.9,2l0.9,4.2l0.4,2.9l-0.9,3.2
	l-1.7,2.2l-1.5-0.8l-1.4-2.9l-2.6-1.4l-1.7-1.1l-0.8,0.8l1.4,2.6l0.2,3.5l-1.1,0.5l-1.9-1.8l-2-1.2l0.4,1.5l1.2,1.7l-0.8,0.8
	c0,0-0.8-0.3-1.2-0.9c-0.5-0.6-2-3.2-2-3.2l-0.9-2.2c0,0-0.3,1.2-0.9,0.9c-0.6-0.3-1.2-1.4-1.2-1.4l1.7-1.8l-1.4-1.4V563h-0.8
	l-0.8,3.2l-1.1,0.5l-0.9-3.5l-0.6-3.5l-0.8-0.5l0.3,5.4v1.1l-1.4-1.2l-3.4-5.7l-2-0.5l-0.6-3.5l-1.5-2.7l-1.5-1.1v-2.1l2-1.2
	l-0.5-0.3l-2.5,0.6l-3.2-2.3l-2.5-2.8l-4.6-2.5l-3.9-2.5l1.2-3.1v-1.5l-1.7,1.5l-2.7,1.1l-3.6-1.1l-5.4-2.3h-5.3l-0.6,0.5l-6.2-3.7
	l-2-0.3l-2.6-5.5l-3.4,0.3l-3.4,1.4l0.5,4.3l1.1-2.8l0.9,0.3l-1.4,4.2l3.1-2.6l0.6,1.5l-3.7,4.1l-1.2-0.3l-0.5-1.8l-1.2-0.8
	l-1.2,1.1l-2.6-1.7l-2.9,2l-1.7,2l-3.2,2l-4.5-0.2l-0.5-2l3.6-0.6v-1.2l-2.2-0.6l0.9-2.3l2.2-3.7v-1.7l0.2-0.8l4.2-2.2l0.9,1.2h2.6
	l-1.2-2.5l-3.6-0.3l-4.8,2.6l-2.3,3.2l-1.7,2.5l-1.1,2.2l-4,1.4l-2.9,2.5l-0.3,1.5l2.2,0.9l0.8,2l-2.6,3.1l-6.2,4l-7.4,4l-2,1.1
	l-5.1,1.1l-5.1,2.1l1.7,1.2l-1.4,1.4l-0.5,1.1l-2.6-0.9l-3.1,0.2l-0.8,2.2h-0.9l0.3-2.3l-3.4,1.2l-2.8,0.9l-3.2-1.2l-2.8,1.8h-3.1
	l-2,1.2l-1.5,0.8l-2-0.3l-2.5-1.1l-2.2,0.6l-0.9,0.9l-1.5-1.1v-1.8l2.9-1.2l6,0.6l4.2-1.5l2-2l2.8-0.6l1.7-0.8l2.6,0.2l1.5,1.2
	l0.9-0.3l2.2-2.6l2.9-0.9l3.2-0.6l1.2-0.3l0.6,0.5h0.8l1.2-3.6l3.8-1.4l1.9-3.5l2.2-4.3l1.5-1.4l0.3-2.5l-1.5,1.2l-3.2,0.6l-0.6-2.3
	l-1.2-0.3l-0.9,0.9l-0.2,2.8l-1.4-0.2l-1.4-5.5l-1.2,1.2l-1.1-0.4l-0.3-1.8l-3.8,0.2l-2,1.1l-2.5-0.3l1.4-1.4l0.5-2.5L80,525
	l1.4-0.9l1.2-0.2l-0.6-1.7V518l-0.9-0.9l-0.8,1.4h-5.9l-1.4-1.2l-0.6-3.7l-2-3.4v-0.9l2-0.8l0.2-2l1.1-1.1l-0.8-0.4l-1.2,0.4
	l-1.1-2.6l0.9-4.8l4.3-3.1l2.5-1.5l1.8-3.5l2.6-1.2l2.5,1.1l0.3,2.3l2.3-0.3l3.1-2.3l1.5,0.6l0.9,0.6h1.5l2.2-1.2l0.8-4.1
	c0,0,0.3-2.7,0.9-3.2c0.6-0.5,0.9-0.9,0.9-0.9l-1.1-1.8l-2.5,0.8l-3.1,0.8l-1.9-0.5l-3.4-1.7l-4.8-0.2l-3.4-3.5l0.4-3.7l0.6-2.3
	l-2-1.7l-1.9-3.5l0.5-0.8l6.5-0.5h2l0.9,0.9h0.6l-0.2-1.5l3.7-0.6l2.5,0.3l1.4,1.1l-1.4,2l-0.5,1.4l2.6,1.5l4.8,1.7l1.7-0.9
	l-2.2-4.2l-0.9-3.1l0.9-0.8l-3.2-1.8l-0.5-1.1l0.5-1.5l-0.8-3.7l-2.8-4.5l-2.3-4l2.7-1.8h3.1l1.7,0.6l4-0.2l3.6-3.4l1.1-2.9l3.6-2.3
	l1.5,0.9l2.6-0.6l3.5-2l1.1-0.2l0.9,0.8l4.3-0.2l2.6-2.9h1.1l3.4,2.3l1.9,2l-0.5,1.1l0.6,1.1l1.5-1.5l3.7,0.3l0.3,3.5l1.8,1.4
	l6.8,0.6l6,4l1.4-0.9l4.9,2.5l2-0.6l1.8-0.8l4.6,1.8L172.8,449.2L172.8,449.2z M63,476.7l2,5.1l-0.2,0.9l-2.8-0.3l-1.7-3.8l-1.7-1.4
	h-2.3l-0.1-2.5l1.7-2.3l1.1,2.3l1.4,1.4L63,476.7L63,476.7z M60.6,508.6l3.5,0.8l3.6,0.9l0.8,0.9l-1.5,3.5l-2.9-0.2l-3.2-3.4
	L60.6,508.6z M40.8,495.2l1.1,2.5l1.1,1.5l-1.1,0.8l-2-2.9v-1.8L40.8,495.2L40.8,495.2z M27.7,564.7l3.2-2.2l3.2-0.9l2.5,0.3
	l0.5,1.5L39,564l1.8-1.8l-0.3-1.5l2.6-0.6l2.7,2.5l-1.1,1.7l-4.2,1.1l-2.6-0.5l-3.6-1.1l-4.2,1.4l-1.5,0.3L27.7,564.7L27.7,564.7z
	 M74.5,560.4l1.5,1.8l2-1.5l-1.4-1.2L74.5,560.4z M77.2,563.4l1.1-2.2l2,0.3l-0.8,1.8H77.2z M99.8,561.5l1.4,1.7l0.9-1.1l-0.8-1.8
	L99.8,561.5L99.8,561.5z M108.1,549.7l1.1,5.5l2.8,0.8l4.8-2.7l4.2-2.5l-1.6-2.3l0.5-2.3l-2,1.2l-2.8-0.8l1.5-1.1l1.9,0.8l3.7-1.7
	l0.5-1.4l-2.3-0.8l0.8-1.8l-2.6,1.8l-4.5,3.4l-4.6,2.8L108.1,549.7L108.1,549.7z M148.5,530.8l2.3-1.4l-0.9-1.7l-1.7,0.9
	L148.5,530.8L148.5,530.8z"/>
<path class="st1" d="M122.3,488l4.2-11h1.6l4.5,11h-1.7l-1.3-3.3H125l-1.2,3.3H122.3z M125.4,483.5h3.7l-1.2-3.1
	c-0.4-0.9-0.6-1.7-0.8-2.3c-0.1,0.7-0.3,1.4-0.6,2.1L125.4,483.5z M133.7,488v-11h1.5v5.5l5.5-5.5h2l-4.6,4.5l4.8,6.6h-1.9l-3.9-5.6
	l-1.8,1.8v3.8H133.7z"/>
<path class="st0" d="M746.9,435.3l2.2,7l3.6,9.3l5.1,8.9l3.6,6l4.6,5.2l3.8,3.5l1.5,2.7l-1.1,1.2l-0.8,1.2l2.8,7.1l2.8,2.8l2.5,5.1
	l3.4,5.5l4.3,7.8l1.2,7.2l0.4,11.4l0.6,1.7l-0.3,3.2l-2.3,1.2l0.3,1.8l-0.6,1.8l0.3,2.3l0.4,1.8l-2.6,3.1l-2.9,1.4l-3.7,0.2
	l-1.4,1.5l-2.3,0.9l-1.2-0.5l-1.1-0.9l-0.3-2.8l-0.8-3.2l-3.2-4.9l-3.4-2.2l-3.7-0.3l-0.8,1.2l-2.9-4.2l-0.6-3.4l-2.5-3.8l-1.7-1.1
	l-1.5,2l-1.7-0.3l-2-4.8l-2.8-3.7l-2.8-5.1l-2.5-2.9l-3.4-3.5l2-2.3l3.1-5.2l-0.1-1.5l-4.3-0.9l-1.5,0.6l0.3,0.6l2.5,0.9l-1.4,4.3
	l-0.8,0.5l-1.7-3.8l-1.2-4.6l-0.3-2.6l1.4-4.5v-9.1l-2.9-3.5l-1.2-2.9l-4.9-1.2l-1.8-0.6l-1.5-2.5l-3.2-1.5l-1.1-3.2l-2.6-0.9
	l-2.3-3.5l-4-1.4l-2.8-1.4h-2.5l-3.8,0.8l-0.2,1.8l0.8,0.9l-0.5,1.1l-2.9-0.2l-3.6,3.4l-3.4,1.8H683l-3.1,1.2l-0.3-2.6l-1.5-1.8
	l-2.8-1.1l-1.5-1.4l-7.7-3.7l-7.3-1.7l-4.2,0.6l-5.7,0.5l-5.7,2l-3.3,0.6l-0.2-7.7l-2.5-1.8l-1.7-1.7l0.3-2.9l9.7-1.2l24.4-2.8
	l6.5-0.6l5.2,0.3l2.5,3.7l1.4,1.4l7.7,0.5l10.3-0.6l20.5-1.2l5.2-0.6l4.9,0.2l0.4,2.7l2.1,0.8l0.2-4.4l-1.5-4l1.3-1.5l5.3,0.6
	L746.9,435.3L746.9,435.3z M758.9,561.4l2.3-0.6l1.2-0.2l1.4-2.2l2.2-1.5l1.2,0.5l1.6,0.3l0.4,1l-3.3,1.2l-4,1.4l-2.2,1.2
	L758.9,561.4L758.9,561.4z M771.7,556.6l1.2,1l2.6-2l5.1-4l3.6-3.7l2.4-6.3l0.9-1.6l0.2-3.2l-0.7,0.4l-0.9,2.7l-1.4,4.4l-3.1,5
	l-4.2,4l-3.2,1.8L771.7,556.6L771.7,556.6z"/>
<path class="st1" d="M746.9,488.2v-11h7.4v1.3h-6v3.4h5.2v1.3h-5.2v5H746.9z M756.1,488.2v-11h1.5v9.7h5.4v1.3H756.1z"/>
<path class="st0" d="M862.3,152.9l0.8-1l1-3.1l-2.4-0.9l-0.5-2.9l-3.7-1.1l-0.3-2.6l-6.9-22.3l-4.4-13.8h-0.9l-0.6,1.5l-0.6-0.5
	l-0.9-0.9l-1.4,1.8l0,4.8l0.3,5.4l1.8,2.6v3.8l-3.5,4.8l-2.5,1.1v1.1l1.1,1.7v8.2l-0.8,8.8l-0.2,4.6l0.9,1.2l-0.2,4.3l-0.5,1.7
	l0.9,0.7l16-4.2l2.1-0.6l1.8-2.6L862.3,152.9L862.3,152.9z"/>
<path class="st1" d="M841,146.2v-7.6h1l4,6v-6h1v7.6h-1l-4-6v6H841z M848.8,146.2v-7.6h1v3.1h3.9v-3.1h1v7.6h-1v-3.6h-3.9v3.6H848.8
	z"/>
<path class="st0" d="M827.7,164l0.3-5.1l-2.7-10.3l-0.6-0.3l-2.8-1.2l0.8-2.8l-0.8-2l-2.6-4.4l0.9-3.7l-0.8-4.9l-2.3-6.2l-0.8-4.7
	l25.2-6.4l0.3,5.3l1.8,2.6v3.8l-3.5,4.8l-2.5,1.1v1.1l1.2,1.5l-0.3,7.7l-0.6,8.8l-0.2,5.3l0.9,1.2l-0.2,4.4l-0.5,1.6l1,0.7l-7.1,1.4
	L827.7,164L827.7,164z"/>
<path class="st2" d="M821.7,95.4l8.4,27.7L821.7,95.4L821.7,95.4z"/>
<path class="st1" d="M818.4,90.6l-2.8-7.2h1l1.9,5.3c0.2,0.4,0.3,0.8,0.4,1.2c0.1-0.4,0.2-0.8,0.4-1.2l2-5.3h1l-2.8,7.2H818.4z
	 M824.9,90.6v-6.4h-2.4v-0.9h5.7v0.9h-2.4v6.4H824.9z"/>
<path class="st0" d="M902.4,92.4l1.9,2l2.2,3.5v1.8l-2,4.5l-1.8,0.6l-3.2,2.9l-4.6,5.2h-1.2c-0.6,0-0.9-2-0.9-2l-1.7,0.2l-0.9,1.4
	l-2.3,1.4l-0.9,1.4l1.5,1.4l-0.5,0.6l-0.5,2.6l-1.8-0.2v-1.5l-0.3-1.2l-1.4,0.3l-1.7-3.1l-2,1.2l1.2,1.4l0.3,1.1l-0.8,1.2l0.3,2.9
	l0.2,1.5l-1.5,2.5l-2.8,0.5l-0.3,2.8l-5.1,2.9l-1.2,0.5l-1.5-1.4l-2.9,3.4l0.9,3.1l-1.4,1.2l-0.2,4.1l-1.1,6l-2.3-1.1l-0.5-2.9
	l-3.7-1.1l-0.3-2.6l-6.9-22.3l-4.5-13.9l1.4-0.1l1.5,0.4V103l1.2-4.3l2.5-4.5l1.4-3.8l-1.9-2.3v-5.7l0.8-0.9l0.8-2.6l-0.2-1.4
	l-0.1-4.6l1.7-4.6l2.8-8.5l2-4h1.2l1.2,0.2V57l1.2,2.2l2.6,0.6l0.8-0.8v-0.9l3.8-2.8l1.7-1.7l1.4,0.2l5.7,2.3l1.8,0.9l8.6,28.5h5.7
	l0.8,1.8l0.1,4.6l2.8,2.2h0.8l0.2-0.5l-0.5-1.1L902.4,92.4L902.4,92.4z M882.4,121.1l1.5-1.5l1.3,1l0.5,2.3l-1.6,0.9L882.4,121.1
	L882.4,121.1z M888.8,115.5l1.7,1.8c0,0,1.2,0.1,1.2-0.2c0-0.3,0.2-1.9,0.2-1.9l0.9-0.8l-0.8-1.7l-1.9,0.7L888.8,115.5L888.8,115.5z
	"/>
<path class="st1" d="M863.8,100.3v-9.9h2l2.4,7c0.2,0.7,0.4,1.1,0.5,1.5c0.1-0.4,0.3-0.9,0.5-1.6l2.4-6.9h1.8v9.9H872v-8.3l-2.9,8.3
	H868l-2.9-8.5v8.5H863.8z M875.5,100.3v-9.9h7.2v1.2h-5.9v3h5.5v1.2h-5.5v3.4h6.1v1.2H875.5z"/>
<path class="st0" d="M855.9,187.6l-3.5-14.2l6-1.8l2.1,1.8l3.2,4.1l2.6,4.2l-2.9,1.5l-1.2-0.1l-1.1,1.7l-2.3,1.8L855.9,187.6
	L855.9,187.6z"/>
<path class="st2" d="M859.3,180l16.5,18.2L859.3,180L859.3,180z"/>
<path class="st1" d="M879.4,205.9v-8.6h3.8c0.8,0,1.3,0.1,1.7,0.2c0.4,0.2,0.7,0.4,1,0.8c0.2,0.4,0.4,0.8,0.4,1.3
	c0,0.6-0.2,1.1-0.6,1.5c-0.4,0.4-1,0.7-1.8,0.8c0.3,0.1,0.5,0.3,0.7,0.4c0.3,0.3,0.6,0.7,0.9,1.1l1.5,2.3h-1.4l-1.1-1.8
	c-0.3-0.5-0.6-0.9-0.8-1.2c-0.2-0.3-0.4-0.5-0.6-0.6c-0.2-0.1-0.3-0.2-0.5-0.2c-0.1,0-0.3,0-0.6,0h-1.3v3.8H879.4z M880.6,201.1h2.4
	c0.5,0,0.9-0.1,1.2-0.2c0.3-0.1,0.5-0.3,0.7-0.5c0.2-0.2,0.2-0.5,0.2-0.8c0-0.4-0.1-0.7-0.4-1c-0.3-0.3-0.8-0.4-1.4-0.4h-2.7V201.1z
	 M888.3,205.9v-8.6h1.1v8.6H888.3z"/>
<path class="st0" d="M814.2,197l-1.1-0.9l-2.5-0.2l-2.2-1.8l-1.5-5.8l-3.3,0.1l-2.3-2.6l-18.5,4.2l-41,8.3l-7.2,1.2l-0.7-6.2
	l1.4-1.1l1.2-1.1l0.9-1.5l1.7-1.1l1.9-1.7l0.4-1.5l2-2.6l1.1-0.9l-0.2-0.9l-1.2-2.9l-1.7-0.2l-1.8-5.8l2.8-1.7l4.2-1.4l3.8-1.2
	l3.1-0.5l6-0.2l1.9,1.2l1.5,0.2l2-1.2l2.5-1.1l4.9-0.5l2-1.7l1.7-3.1l1.5-1.9h2l1.8-1.1l0.2-2.2l-1.4-2l-0.3-1.4l1.1-2v-1.4h-1.7
	l-1.7-0.8l-0.8-1.1l-0.2-2.5l5.5-5.2l0.6-0.8l1.4-2.8l2.8-4.3l2.6-3.5l2-2.3l2.3-1.8l2.9-1.2l5.2-1.2l3.1,0.2l4.3-1.4l7.2-2l0.5,4.7
	l2.3,6.2l0.8,4.9l-0.9,3.7l2.5,4.3l0.8,2l-0.8,2.8l2.7,1.2l0.6,0.3l2.9,10.4l-0.5,4.8l-0.5,10.3l0.8,5.2l0.8,3.4l1.4,6.9v7.7
	l-1.1,2.1l1.8,1.9l0.7,1.6l-1.8,1.7l0.3,1.2l1.2-0.3l1.4-1.2l2.2-2.5l1.1-0.6l1.5,0.6l2.2,0.2l7.6-3.7l2.7-2.6l1.3-1.4l4,1.5
	l-3.2,3.4l-3.7,2.8l-6.8,5.1l-2.5,0.9l-5.6,1.8l-3.8,1.1l-1.1-0.5l-0.2-3.5l0.4-2.6l-0.1-2l-2.7-1.6l-4.3-0.9l-3.7-1.1L814.2,197
	L814.2,197z"/>
<path class="st1" d="M791.2,165.3v-11h1.5l5.8,8.7v-8.7h1.4v11h-1.5l-5.8-8.7v8.7H791.2z M805.5,165.3v-4.7l-4.2-6.4h1.8l2.2,3.3
	c0.4,0.6,0.8,1.2,1.1,1.9c0.3-0.6,0.7-1.2,1.2-1.9l2.1-3.2h1.7l-4.4,6.4v4.7H805.5z"/>
<path class="st0" d="M809.2,231.2l1.3-0.3l2.2-1.2l1.1-2.4l1.5-2.1l3.1-2.9v-0.8l-2.3-1.5l-3.4-2.3l-0.9-2.5l-2.6-0.3l-0.2-1.1
	l-0.8-2.6l2.1-1.1l0.2-2.3l-1.2-1.2l0.2-1.5l1.9-2.9v-2.9l2.6-2.5l-0.9-0.6l-2.4-0.2l-2.2-1.8l-1.5-5.8l-3.3,0.1l-2.3-2.6l-17.3,4
	l-41,8.3l-8.5,1.4l-0.6-6.2l-5.1,4.8l-1.2,0.4l-4,2.9l2.8,18.2l2.4,9.3l3.4,18.3l3.1-0.6l11.4-1.4l36.2-7.3l14.2-2.7l7.9-1.5
	l0.3-0.2l2-1.5L809.2,231.2L809.2,231.2z"/>
<path class="st1" d="M756.1,220.9v-11h4.2c0.7,0,1.3,0,1.7,0.1c0.5,0.1,1,0.3,1.4,0.5c0.4,0.3,0.7,0.6,0.9,1.1
	c0.2,0.5,0.3,1,0.3,1.5c0,0.9-0.3,1.7-0.9,2.4c-0.6,0.6-1.7,1-3.2,1h-2.8v4.5H756.1z M757.5,215.1h2.9c0.9,0,1.6-0.2,2-0.5
	c0.4-0.4,0.6-0.8,0.6-1.5c0-0.5-0.1-0.9-0.4-1.2c-0.2-0.3-0.5-0.5-0.9-0.7c-0.2-0.1-0.7-0.1-1.4-0.1h-2.8V215.1z M764,220.9l4.2-11
	h1.6l4.5,11h-1.7l-1.3-3.3h-4.6l-1.2,3.3H764z M767.2,216.3h3.7l-1.2-3.1c-0.4-0.9-0.6-1.7-0.8-2.3c-0.1,0.7-0.3,1.4-0.6,2.1
	L767.2,216.3z"/>
<path class="st0" d="M815.4,270.6l-0.1-1.9l6.2-2.4l-0.7,3.1l-2.8,3.6l-0.4,4.4l0.4,3.2l-1.8,4.7l-2.1,1.8l-1.4-4.4l0.4-5.2l1.5-4
	L815.4,270.6L815.4,270.6z M818.6,297.6l-55.5,12l-35.7,5l-6.4-0.3l-2.5,1.8l-7,0.2l-8,0.9l-10.4,1.5l10-5.4v-2l1.4-2l10.1-11
	l3.8,4.3l3.6,0.9l2.4-1.1l2.1-1.3l2.4,1.3l3.7-1.4l1.8-4.3l2.5,0.5l2.7-2l1.7,0.5l2.7-3.5l0.3-2l-0.9-1.2l1-1.8l5-11.7l0.6-5.4
	l1.2-0.5l2.1,2.3l3.7-0.3l1.8-7.2l2.7-0.5l1-2.6l2.5-2.2l2.6-5.4l0.1-4.8l9.4,3.6c0.7,0.3,0.8-4.8,0.8-4.8l3.5,1.5l0.1,2.8l5.5,1.2
	l2,1.1l1.6,2l-0.6,3.5l-1.9,2.5l0.1,2l0.6,1.8l4.8,1.2l4.2,0l2.9,0.9l1.9,0.3l0.7,2.9l3.1,0.4l0.8,1.2l-0.4,4.5l1.3,1.1l-0.5,1.8
	l1.2,0.7l-0.2,1.3l-2.6-0.1l0.1,1.5l2.2,1.5l0.1,1.3l1.7,1.7l0.5,2.4l-2.4,1.3l1.5,1.4l5.5-1.6L818.6,297.6L818.6,297.6z"/>
<path class="st1" d="M767.6,290.3l-4.3-11h1.6l2.9,8c0.2,0.6,0.4,1.2,0.6,1.8c0.2-0.6,0.4-1.2,0.6-1.8l3-8h1.5l-4.3,11H767.6z
	 M772.4,290.3l4.2-11h1.6l4.5,11H781l-1.3-3.3h-4.6l-1.2,3.3H772.4z M775.6,285.8h3.7l-1.2-3.1c-0.4-0.9-0.6-1.7-0.8-2.3
	c-0.1,0.7-0.3,1.4-0.6,2.1L775.6,285.8z"/>
<path class="st0" d="M748.2,244.8l1.1,4.7l1,5.7l2-2.5l2.2-2.9l2.4-0.6l1.4-1.4l1.7-2.5l1.4,0.6l2.8-0.3l2.5-2l1.9-1.4l1.8-0.5
	l1.2,1l3.5,1.7l1.8,1.7l1.3,1.2l-0.7,5.3l-5.6-2.4l-4.1-1.5l-0.1,4.9l-2.6,5.3l-2.4,2.3l-1.1,2.6l-2.5,0.5l-0.8,3.4l-1,3.7l-3.8,0.3
	l-2.2-2.3l-1,0.5l-0.6,5.2l-1.3,3.4l-4.7,10.4l0.9,1.1l-0.2,1.8l-2.7,3.7l-1.7-0.5l-2.8,2.1l-2.4-0.6l-1.9,4.3c0,0-3.1,1.4-3.7,1.3
	c-0.2,0-2.4-1.2-2.4-1.2l-2.2,1.3l-2.3,1l-3.6-0.8l-1.1-1.1l-2.1-2.9l-3-1.9l-1.6-3.5l-4.1-3.3l-0.6-2.2l-2.5-1.4l-0.8-1.5l-0.2-5
	l2.1-0.1l1.8-0.8l0.2-2.6l1.5-1.4l0.2-4.8l0.9-3.7l1.2-0.6l1.2,1.1l0.5,1.7l1.7-0.9l0.5-1.5l-1.1-1.7v-2.3l0.9-1.2l2.2-3.2l1.2-1.4
	l2,0.5l2.2-1.5l2.9-3.2l2.1-3.7l0.3-5.4l0.5-4.8v-4.5l-1.1-2.9l0.9-1.4l1.2-1.2l3.3,18.9l4.4-0.7L748.2,244.8L748.2,244.8z"/>
<path class="st1" d="M722.8,277.3l-2.9-11h1.5l1.7,7.2c0.2,0.8,0.3,1.5,0.5,2.3c0.3-1.2,0.4-1.9,0.5-2l2.1-7.4h1.8l1.6,5.6
	c0.4,1.4,0.7,2.7,0.9,3.9c0.1-0.7,0.3-1.5,0.5-2.4l1.7-7.1h1.5l-3,11h-1.4l-2.3-8.4c-0.2-0.7-0.3-1.1-0.3-1.3
	c-0.1,0.5-0.2,0.9-0.3,1.3l-2.3,8.4H722.8z M738.5,277.3l-4.3-11h1.6l2.9,8c0.2,0.6,0.4,1.2,0.6,1.8c0.2-0.6,0.4-1.2,0.6-1.8l3-8
	h1.5l-4.3,11H738.5z"/>
<path class="st0" d="M723.5,201.4l-5.8,3.8l-3.7,2.2l-3.2,3.5l-3.8,3.7l-3.1,0.8l-2.8,0.5l-5.3,2.5l-2,0.2l-3.2-2.9l-4.9,0.6
	l-2.5-1.4l-2.3-1.3l-4.7,0.7l-9.7,1.5l-10.7,2.1l1.2,13.9l1.7,13.1l2.5,22.3l0.5,4.6l3.9-0.1l2.3-0.8l3.2,1.4l2,4.1h4.9l1.8,2
	l1.7-0.1l2.4-1.3l2.4,0.4l5.2,0.5l1.6-2l2.2-1.2l2-0.7l0.6,2.6l1.7,0.9l3.3,2.2l2.1-0.1l1.3-0.5l0.2-2.6l1.5-1.4l0.1-4.6l1-3.9
	l1.2-0.6l1.2,1.1l0.5,1.6l1.6-1l0.4-1.4l-1.1-1.8l0.1-2.2l0.7-1l2.1-3.2l1-1.5l2,0.4l2.2-1.5l2.9-3.2l2.6-3.9l0.3-4.8l0.5-4.8
	l-0.2-5.1l-0.9-2.7l0.3-1.1l1.7-1.6l-2.2-8.6L723.5,201.4L723.5,201.4z"/>
<path class="st1" d="M679.3,241.5c0-1.8,0.5-3.3,1.5-4.3c1-1,2.3-1.6,3.8-1.6c1,0,1.9,0.2,2.8,0.7c0.8,0.5,1.4,1.2,1.9,2
	c0.4,0.9,0.6,1.9,0.6,3c0,1.1-0.2,2.1-0.7,3c-0.5,0.9-1.1,1.6-1.9,2c-0.8,0.5-1.7,0.7-2.7,0.7c-1,0-2-0.2-2.8-0.8
	c-0.8-0.5-1.4-1.2-1.9-2.1C679.5,243.4,679.3,242.5,679.3,241.5z M680.8,241.5c0,1.3,0.4,2.4,1.1,3.1c0.7,0.8,1.6,1.1,2.7,1.1
	c1.1,0,2-0.4,2.7-1.2c0.7-0.8,1.1-1.9,1.1-3.3c0-0.9-0.2-1.7-0.5-2.3c-0.3-0.7-0.7-1.2-1.3-1.6c-0.6-0.4-1.2-0.6-2-0.6
	c-1,0-1.9,0.4-2.7,1.1C681.1,238.7,680.8,239.9,680.8,241.5z M691.7,246.9v-11h1.5v4.5h5.7v-4.5h1.5v11h-1.5v-5.2h-5.7v5.2H691.7z"
	/>
<path class="st0" d="M613.1,302.9l0.1-2.7l0.5-4.3l2.2-2.7l1.7-3.7l2.5-4l-0.5-5.1l-1.6-3l-0.3-3.1l0.8-5.2l-0.5-6.6l-1.2-15.3
	l-1.2-14.6l-0.9-11.1l2.9,0.8l1.4,0.9l1.1-0.3l2-1.8l2.7-1.5l4.9-0.2l21-2.2l5.3-0.5l1.4,15.2l4,35.1l0.6,5.5l-0.4,2.2l1.2,1.7
	l0.1,1.3l-2.4,1.5l-3.4,1.5l-3.1,0.5l-0.6,4.6l-4.4,3.2l-2.7,3.8l0.3,2.3l-0.6,1.5h-3.2l-1.5-1.5l-2.4,1.2l-2.6,1.4l0.2,2.9
	l-1.1,0.3l-0.4-1l-2.1-1.4l-3.1,1.3l-1.5,2.9l-1.4-0.8l-1.4-1.5l-4.3,0.5l-5.3,0.9L613.1,302.9L613.1,302.9z"/>
<path class="st1" d="M631.9,262.4v-11h1.5v11H631.9z M635.9,262.4v-11h1.5l5.8,8.7v-8.7h1.4v11h-1.5l-5.8-8.7v8.7H635.9z"/>
<path class="st0" d="M613.1,303.2l0-3.1l0.5-4.4l2.2-2.8l1.8-3.9l2.1-3.8l-0.4-5l-1.6-3l-0.3-3.1l0.8-5.2l-0.5-6.6l-1.2-15.3
	l-1.2-14.6l-0.9-11.1l-0.5-0.7l-0.8-2.5l-1.2-3.5l-1.5-1.7l-1.4-2.5l-0.2-5.2l-43.7,2.5l0.2,2.3l2.2,0.7l0.9,1.1l0.4,1.8l3.7,3.3
	l0.7,2.2l-0.7,3.3l-1.6,2.8l-0.7,2.8l-2.1,1.6l-1.5,0.5l-5.5,1.9l-0.7,1.7l-0.7,2l0.7,1.3l1.8,1.5l-0.2,3.9l-1.8,1.5l-0.7,1.5v2.6
	l-1.7,0.4l-1.5,1.1l-0.2,1.3l0.2,2l-1.6,1.2l-1,2.7l0.4,3.5l2.2,7l7,7.2l5.2,3.5l-0.2,4.1l0.9,1.3l6.1,0.4l2.6,1.3l-0.7,3.5
	l-2.2,5.7l-0.7,3l2.2,3.7l6.1,5l4.4,0.7l2,4.8l2,3l-0.9,2.8l1.5,3.9l1.8,2l1.3-0.8l0.9-2l2.1-1.6l2-0.6l2.5,1.1l3.5,1.3l1.1-0.3
	l0.2-2.1l-1.2-2.3l0.3-2.3l1.8-1.3l2.9-0.8l1.2-0.4l-0.6-1.3l-0.7-2.2l1.4-0.9L613.1,303.2L613.1,303.2z"/>
<path class="st1" d="M588.9,262.7v-11h1.5v11H588.9z M592.8,262.7v-11h1.5v9.7h5.4v1.3H592.8z"/>
<path class="st0" d="M855.9,187.6l-3.5-14.2l-4.5,0.9l-20.2,4.5l0.9,3.1l1.4,6.9l0.2,8.5l-1.2,2.1l1.8,1.8l4.1-3.7l3.4-3.1l1.8-2
	l0.8,0.6l2.6-1.4l4.9-1.1L855.9,187.6L855.9,187.6z"/>
<path class="st1" d="M838.6,184.1l1,0.2c-0.2,0.8-0.6,1.4-1.1,1.8c-0.5,0.4-1.2,0.6-1.9,0.6c-0.8,0-1.4-0.2-1.9-0.5
	c-0.5-0.3-0.9-0.8-1.1-1.4c-0.3-0.6-0.4-1.3-0.4-2c0-0.8,0.1-1.4,0.4-2c0.3-0.6,0.7-1,1.2-1.3c0.5-0.3,1.1-0.4,1.8-0.4
	c0.7,0,1.3,0.2,1.8,0.6c0.5,0.4,0.8,0.9,1,1.6l-1,0.2c-0.2-0.5-0.4-0.9-0.7-1.2c-0.3-0.2-0.7-0.4-1.2-0.4c-0.6,0-1,0.1-1.4,0.4
	c-0.4,0.3-0.6,0.6-0.8,1.1c-0.2,0.5-0.2,0.9-0.2,1.4c0,0.6,0.1,1.2,0.3,1.6c0.2,0.5,0.5,0.8,0.8,1c0.4,0.2,0.8,0.3,1.2,0.3
	c0.5,0,1-0.2,1.4-0.5S838.5,184.8,838.6,184.1z M842.7,186.7v-6.4h-2.4v-0.9h5.8v0.9h-2.4v6.4H842.7z"/>
<path class="st0" d="M608.8,205.2l-0.1-3l-1.1-4.3l-0.6-5.9l-1.1-2.3l0.9-2.9l0.8-2.8l1.4-2.5l-0.6-3.2l-0.6-3.4l0.5-1.7l1.8-2.3
	l0.2-2.6l-0.8-1.2l0.6-2.5l-0.4-4l2.6-5.4l2.7-6.5l0.2-2.1l-0.3-0.9l-0.8,0.5l-4,6l-2.6,3.8l-1.8,1.7l-0.8,2.2l-1.9,0.8l-1.1,1.8
	l-1.4-0.3l-0.2-1.7l1.2-2.3l2-4.5l1.7-1.5l0.9-2.2l-2.5-1.8l-1.9-9.9l-3.4-1.3l-1.8-2.2l-11.6-2.6l-2.7-1l-7.8-2.1l-7.6-1.1
	l-3.6-4.9l-0.7,0.5l-1.1-0.2l-0.6-1.1l-1.3,0.3l-1.1,0.2l-1.7,0.9l-0.9-0.6l0.6-1.8l1.8-2.9l1.1-1.1l-1.8-1.4l-2,0.8l-2.8,1.8
	l-7.1,3.1l-2.8,0.6l-2.8-0.5l-0.9-0.8l-2,2.7l-0.2,2.6v8L536,136l-5,3.7l-2.2,5.7l0.4,0.2l2.4,2l0.7,3l-1.8,3v3.7l0.4,6.3l2.8,2.8
	h3.3l1.7,3l3.3,0.4l3.7,5.4l6.8,3.9l2,2.6l0.9,7.1l0.6,3.2l2.2,1.5l0.2,1.3l-2,3.3l0.2,3l2.4,3.7l2.4,1.1l2.8,0.4l1.3,1.3
	L608.8,205.2L608.8,205.2z"/>
<path class="st1" d="M571.2,167.6l-2.9-11h1.5l1.7,7.2c0.2,0.8,0.3,1.5,0.5,2.3c0.3-1.2,0.4-1.9,0.5-2l2.1-7.4h1.8l1.6,5.6
	c0.4,1.4,0.7,2.7,0.9,3.9c0.1-0.7,0.3-1.5,0.5-2.4l1.7-7.1h1.5l-3,11H578l-2.3-8.4c-0.2-0.7-0.3-1.1-0.3-1.3
	c-0.1,0.5-0.2,0.9-0.3,1.3l-2.3,8.4H571.2z M584.1,167.6v-11h1.5v11H584.1z"/>
<path class="st0" d="M818.6,297.5l2,4.7l3.4,6.2l2.3,2.3l0.6,2.1l-2.3,0.2l0.8,0.6l-0.3,4l-2.5,1.2l-0.6,2l-1.2,2.8l-3.5,1.5
	l-2.3-0.3l-1.4-0.2l-1.5-1.2l0.3,1.2v0.9h1.8l0.8,1.2l-1.8,6h4l0.6,1.5l2.2-2.1l1.2-0.5l-1.8,3.4l-2.9,4.6H815l-1.1-0.4l-2.6,0.6
	l-4.9,2.3l-6.2,5.1l-3.2,4.5l-1.8,6.2l-0.5,2.3l-4.5,0.5l-5.2,1.3l-9.5-7.8l-12-7.2l-2.8-0.8l-12,1.4l-4.1,0.7l-1.6-3.1l-2.8-2
	l-15.7,0.5l-6.9,0.8l-8.7,4.3l-5.9,2.5l-20.2,2.5l0.5-3.8l1.7-1.4l2.6-0.6l0.6-3.6l4-2.6l3.7-1.4l4-3.4l4.2-2l0.6-2.9l3.7-3.7
	l0.6-0.1c0,0,0,1.1,0.8,1.1c0.8,0,1.8,0.3,1.8,0.3l2.2-3.4l2-0.6l2.2,0.3l1.5-3.4l2.8-2.5l0.5-2l0.2-3.5l4.1,0l6.9-0.8l15-2.1
	l14.4-2L784,305l19.1-4.1l10.7-2.3L818.6,297.5z M822.7,329.1l2.5-2.4l3-2.5l1.5-0.6l0.2-1.9l-0.6-5.8l-1.4-2.2l-0.6-1.8l0.7-0.2
	l2.6,5.2l0.4,4.2l-0.2,3.2l-3.2,1.5l-2.7,2.3l-1.1,1.2L822.7,329.1L822.7,329.1z"/>
<path class="st1" d="M761,329.9v-11h1.5l5.8,8.7v-8.7h1.4v11h-1.5l-5.8-8.7v8.7H761z M780,326.1l1.5,0.4c-0.3,1.2-0.9,2.1-1.7,2.7
	c-0.8,0.6-1.8,0.9-2.9,0.9c-1.2,0-2.2-0.2-2.9-0.7c-0.7-0.5-1.3-1.2-1.7-2.1c-0.4-0.9-0.6-1.9-0.6-3c0-1.1,0.2-2.1,0.7-3
	c0.4-0.9,1.1-1.5,1.9-1.9c0.8-0.4,1.7-0.7,2.7-0.7c1.1,0,2,0.3,2.8,0.8c0.8,0.6,1.3,1.4,1.6,2.4l-1.4,0.3c-0.3-0.8-0.6-1.4-1.1-1.8
	c-0.5-0.4-1.1-0.5-1.8-0.5c-0.8,0-1.6,0.2-2.1,0.6c-0.6,0.4-1,1-1.2,1.6c-0.2,0.7-0.3,1.4-0.3,2.1c0,0.9,0.1,1.8,0.4,2.5
	c0.3,0.7,0.7,1.2,1.3,1.6c0.6,0.3,1.2,0.5,1.9,0.5c0.8,0,1.5-0.2,2.1-0.7C779.4,327.7,779.8,327,780,326.1z"/>
<path class="st0" d="M880.3,182.3l2.1-0.7l0.4-1.6l1,0.1l1,2.2l-1.2,0.4l-3.7,0.1L880.3,182.3z M871.3,183.1l2.2-2.5h1.5l1.8,1.4
	l-2.3,1l-2.1,1L871.3,183.1L871.3,183.1z M838.1,162.1l16.8-4.4l2.2-0.6l1.8-2.7l3.6-1.6l2.7,4.2l-2.3,4.9l-0.3,1.4l1.8,2.5l1.1-0.8
	h1.7l2.2,2.5l3.7,5.7l3.4,0.5l2.2-0.9l1.7-1.7l-0.8-2.6l-2-1.5l-1.4,0.8l-0.9-1.2l0.5-0.5l2-0.2l1.7,0.8l1.8,2.3l0.9,2.8l0.3,2.3
	l-4,1.4l-3.7,1.9l-3.7,4.3l-1.9,1.4V182l2.3-1.4l0.5-1.7l-0.8-2.9l-2.8,1.4l-0.8,1.4l0.5,2.1l-2,1l-2.6-4.3l-3.2-4.2l-2-1.7
	l-6.2,1.8l-4.8,1l-19.7,4.4l-0.6-4.5l0.6-10.1l4.1-0.8L838.1,162.1L838.1,162.1z"/>
<path class="st1" d="M843.1,168.5v-7.1h1.4l1.7,5.1c0.2,0.5,0.3,0.8,0.3,1.1c0.1-0.3,0.2-0.6,0.4-1.1l1.7-5h1.3v7.1H849v-6l-2.1,6
	h-0.9l-2.1-6.1v6.1H843.1z M850.7,168.5l2.7-7.1h1l2.9,7.1h-1.1l-0.8-2.2h-3l-0.8,2.2H850.7z M852.7,165.5h2.4l-0.7-2
	c-0.2-0.6-0.4-1.1-0.5-1.5c-0.1,0.5-0.2,0.9-0.4,1.4L852.7,165.5z"/>
<path class="st0" d="M554.8,253.5l-2.4-2.9l-1.1-2.2l-61.4,2.3l-2.2,0.1l1.2,2.4l-0.2,2.2l2.4,3.7l2.9,3.9l3,2.6l2,0.2l1.4,0.9v2.8
	l-1.7,1.5l-0.4,2.2l2,3.3l2.4,2.8l2.4,1.7l1.3,11.1l0.3,34.3l0.2,4.5l0.4,5.1l21.4-0.8l22.1-0.7l19.8-0.7l11.1-0.2l2.1,3.3l-0.7,3.2
	l-2.9,2.3l-0.5,1.8l5.1,0.4l3.7-0.7l1.7-5.2l0.6-5.6l2-2.4l2.5-1.4l0.1-2.9l1-1.8l-1.6-2.4l-1.3,0.9l-1.9-2.1l-1.2-4.5l0.7-2.4
	l-1.8-3.3l-1.8-4.4l-4.6-0.8l-6.6-5.3l-1.6-3.9l0.8-3l2-5.8l0.4-2.7l-1.9-1l-6.5-0.8l-1-1.6l-0.1-4l-5.2-3.3l-6.7-7.4l-2.2-7l-0.2-4
	L554.8,253.5L554.8,253.5z"/>
<path class="st1" d="M526.8,298.5v-11h2.2l2.6,7.8c0.2,0.7,0.4,1.3,0.5,1.6c0.1-0.4,0.3-1,0.6-1.8l2.6-7.7h2v11h-1.4v-9.2l-3.2,9.2
	h-1.3l-3.2-9.4v9.4H526.8z M539.2,293.1c0-1.8,0.5-3.3,1.5-4.3c1-1,2.3-1.6,3.8-1.6c1,0,1.9,0.2,2.8,0.7c0.8,0.5,1.4,1.2,1.9,2
	c0.4,0.9,0.6,1.9,0.6,3c0,1.1-0.2,2.1-0.7,3c-0.5,0.9-1.1,1.6-1.9,2c-0.8,0.5-1.7,0.7-2.7,0.7c-1,0-2-0.3-2.8-0.8
	c-0.8-0.5-1.4-1.2-1.9-2.1C539.4,295,539.2,294.1,539.2,293.1z M540.7,293.1c0,1.3,0.4,2.4,1.1,3.1c0.7,0.8,1.6,1.1,2.7,1.1
	c1.1,0,2-0.4,2.7-1.2c0.7-0.8,1.1-1.9,1.1-3.3c0-0.9-0.2-1.7-0.5-2.3c-0.3-0.7-0.7-1.2-1.3-1.6c-0.6-0.4-1.2-0.6-2-0.6
	c-1,0-1.9,0.4-2.7,1.1C541.1,290.3,540.7,291.5,540.7,293.1z"/>
<path class="st3" d="M663.4,355.8l0,2.1l0.2,2l0.6,3.2l3.2,7.5l2.3,9.4l1.4,5.8l1.5,4.6l1.4,6.6l2,6l2.5,3.2l0.5,3.2l1.8,0.8l0.2,2
	l-1.7,4.6l-0.5,3.1l-0.2,1.8l1.5,4.1l0.3,5.1l-0.8,2.3l0.6,0.8l1.4,0.8l-0.2,2.7l2.5,3.7l1.4,1.4l7.7,0.5l20.4-1l10.8-0.6l4.8-0.9
	l4.9,0.2l0.4,2.7l2.1,0.8l0.2-4.4l-1.5-4l1.3-1.5l5.3,0.6l5,0.5l-0.7-6l2.2-9.5l1.4-4l-0.5-2.5l3.2-5.9l-0.5-1.3l-1.8,0.7l-2.5-1.2
	l-0.6-2l-1.2-3.4l-2.2-2l-2.5-0.6l-1.5-4.6l-2.8-6l-4-1.8l-2-1.8l-1.2-2.5l-2-1.8l-2.2-1.2l-2.2-2.8l-2.9-2.2l-4.3-1.7l-0.5-1.4
	l-2.3-2.8l-0.5-1.4l-3.2-4.7l-3.4,0.1l-3.6-2.2l-1.4-1.2l-0.3-1.7l0.8-1.8l2.1-1.1l-0.6-2l-40,4.5L663.4,355.8z"/>
<path class="st1" d="M704.6,400v-1.3l4.7,0v4.1c-0.7,0.6-1.5,1-2.2,1.3c-0.8,0.3-1.5,0.4-2.3,0.4c-1.1,0-2.1-0.2-3-0.7
	c-0.9-0.5-1.5-1.1-2-2c-0.5-0.9-0.7-1.9-0.7-2.9c0-1.1,0.2-2.1,0.7-3c0.5-0.9,1.1-1.6,1.9-2.1c0.8-0.5,1.8-0.7,2.9-0.7
	c0.8,0,1.5,0.1,2.2,0.4c0.6,0.3,1.2,0.6,1.5,1.1c0.4,0.5,0.6,1.1,0.8,1.8l-1.3,0.4c-0.2-0.6-0.4-1-0.6-1.3c-0.2-0.3-0.6-0.6-1.1-0.8
	c-0.5-0.2-1-0.3-1.5-0.3c-0.7,0-1.2,0.1-1.7,0.3c-0.5,0.2-0.9,0.5-1.2,0.8c-0.3,0.3-0.5,0.7-0.7,1.1c-0.3,0.7-0.4,1.4-0.4,2.2
	c0,1,0.2,1.8,0.5,2.5c0.3,0.7,0.8,1.2,1.5,1.5c0.6,0.3,1.3,0.5,2.1,0.5c0.6,0,1.2-0.1,1.9-0.4c0.6-0.2,1.1-0.5,1.4-0.8V400H704.6z
	 M710.2,404.3l4.2-11h1.6l4.5,11h-1.7l-1.3-3.3H713l-1.2,3.3H710.2z M713.4,399.8h3.7l-1.1-3.1c-0.4-0.9-0.6-1.7-0.8-2.3
	c-0.1,0.7-0.3,1.4-0.6,2.1L713.4,399.8z"/>
<path class="st3" d="M751.8,405.9l-1.7,0.9l-2.5-1.2l-0.6-2l-1.2-3.4l-2.2-2l-2.5-0.6l-1.5-4.6l-2.6-5.7l-4-1.8l-2-1.8l-1.2-2.5
	l-2-1.8l-2.2-1.2l-2.2-2.8l-2.9-2.1l-4.3-1.7l-0.5-1.4l-2.3-2.8l-0.5-1.4l-3.2-4.9l-3.2,0.2l-3.8-2.3l-1.2-1.2l-0.3-1.7l0.8-1.8
	l2.2-0.9l-0.5-2.2l5.5-2.2l8.7-4.4l7.4-0.8l15.4-0.4l2.5,1.8l1.6,3.2l4.1-0.6l12-1.4l2.8,0.8l12,7.2l9.6,7.7l-5.2,5.2l-2.5,5.8
	l-0.5,6l-1.5,0.8l-1.1,2.6l-2.3,0.6l-2,3.4l-2.6,2.6l-2.2,3.2l-1.5,0.8l-3.4,3.2l-2.7,0.2l0.9,3.1l-4.8,5.2L751.8,405.9L751.8,405.9
	z"/>
<path class="st1" d="M736.3,367.1l1.4-0.1c0.1,0.6,0.2,1,0.5,1.4c0.2,0.4,0.6,0.6,1.1,0.9c0.5,0.2,1.1,0.3,1.7,0.3
	c0.6,0,1-0.1,1.5-0.2c0.4-0.2,0.7-0.4,0.9-0.7c0.2-0.3,0.3-0.6,0.3-0.9c0-0.3-0.1-0.6-0.3-0.9c-0.2-0.3-0.5-0.5-1-0.7
	c-0.3-0.1-1-0.3-2-0.5c-1-0.2-1.7-0.5-2.1-0.7c-0.5-0.3-0.9-0.6-1.2-1c-0.3-0.4-0.4-0.9-0.4-1.4c0-0.6,0.2-1.1,0.5-1.6
	c0.3-0.5,0.8-0.9,1.4-1.1s1.3-0.4,2-0.4c0.8,0,1.5,0.1,2.2,0.4c0.6,0.3,1.1,0.6,1.4,1.2c0.3,0.5,0.5,1.1,0.5,1.7l-1.4,0.1
	c-0.1-0.7-0.3-1.2-0.8-1.6c-0.4-0.4-1.1-0.5-1.9-0.5c-0.9,0-1.5,0.2-1.9,0.5c-0.4,0.3-0.6,0.7-0.6,1.2c0,0.4,0.1,0.7,0.4,1
	c0.3,0.3,1,0.5,2.2,0.8c1.2,0.3,2,0.5,2.4,0.7c0.6,0.3,1.1,0.7,1.4,1.1c0.3,0.5,0.5,1,0.5,1.6c0,0.6-0.2,1.1-0.5,1.7
	c-0.3,0.5-0.8,0.9-1.5,1.2c-0.6,0.3-1.3,0.4-2.1,0.4c-1,0-1.8-0.1-2.5-0.4c-0.7-0.3-1.2-0.7-1.6-1.3
	C736.5,368.5,736.3,367.9,736.3,367.1z M754.9,366.8l1.5,0.4c-0.3,1.2-0.9,2.1-1.7,2.7c-0.8,0.6-1.8,0.9-2.9,0.9
	c-1.2,0-2.2-0.2-2.9-0.7c-0.7-0.5-1.3-1.2-1.7-2.1c-0.4-0.9-0.6-1.9-0.6-3c0-1.1,0.2-2.1,0.7-3c0.4-0.9,1.1-1.5,1.9-1.9
	c0.8-0.4,1.7-0.7,2.7-0.7c1.1,0,2,0.3,2.8,0.8c0.8,0.6,1.3,1.4,1.6,2.4l-1.4,0.3c-0.3-0.8-0.6-1.4-1.1-1.8c-0.5-0.4-1.1-0.5-1.8-0.5
	c-0.8,0-1.6,0.2-2.1,0.6c-0.6,0.4-1,1-1.2,1.6c-0.2,0.7-0.3,1.4-0.3,2.1c0,0.9,0.1,1.8,0.4,2.5c0.3,0.7,0.7,1.2,1.3,1.6
	c0.6,0.3,1.2,0.5,1.9,0.5c0.8,0,1.5-0.2,2.1-0.7C754.3,368.4,754.7,367.7,754.9,366.8z"/>
<path class="st0" d="M714.6,298.4l-2.2,2.3l-3.4,3.8l-4.7,5.2l-1.2,1.6l-0.1,2l-4.2,2.1l-5.4,3.2l-6.9,1.7l-49.5,4.7l-15,1.7
	l-4.4,0.5l-3.7,0l-0.2,4l-7.8,0.1l-6.6,0.6l-7.6,0l1.2-1.3l2.4-1.5l0.2-3l0.9-1.7l-1.5-2.4l0.8-1.8l2.2-1.7l2-0.6l2.6,1.2l3.4,1.2
	l1.1-0.3l0.2-2.2l-1.2-2.3l0.3-2.1l1.8-1.4l2.5-0.6l1.5-0.6l-0.8-1.7l-0.6-1.8l1.4-0.9c0,0,1.2-3.4,1.2-3.5l2.9-1.4l5.1-0.9l4.3-0.5
	l1.3,1.5l1.5,0.8l1.5-3l3-1.2l2.1,1.4l0.4,0.9l1.1-0.3l-0.2-2.8l3-1.7l2-1l1.5,1.6l3.2,0l0.5-1.5l-0.3-2.2l2.5-3.8l4.6-3.3l0.7-4.6
	l2.8-0.4l3.6-1.6l2.3-1.6l-0.2-1.5l-1.1-1.4l0.6-2.9l4-0.1l2.2-0.7l3.2,1.4l2,4.1h4.9l1.9,2.1l1.5-0.2l2.5-1.2l5,0.6l2.5,0.2l1.6-2
	l2.5-1.4l1.8-0.7l0.6,2.7l2,1l2.5,2l0.1,5.4l0.8,1.5l2.5,1.5l0.7,2.2l4,3.3l1.7,3.5L714.6,298.4L714.6,298.4z"/>
<path class="st1" d="M659.1,305.2v-11h1.5v5.5l5.5-5.5h2l-4.6,4.5l4.8,6.6h-1.9l-3.9-5.6l-1.8,1.8v3.8H659.1z M672.5,305.2v-4.7
	l-4.2-6.4h1.8l2.2,3.3c0.4,0.6,0.8,1.2,1.1,1.9c0.3-0.6,0.7-1.2,1.2-1.9l2.1-3.2h1.7l-4.4,6.4v4.7H672.5z"/>
<path class="st3" d="M624.3,455.6l-1.4-13.6l-2.6-17.9l0.2-13.4l0.8-29.5l-0.2-15.8l0.2-6.1l42.2-3.5l0.1,2.1l0.2,2l0.6,3.2l3.3,7.5
	l2.3,9.4l1.4,5.8l1.5,4.6l1.4,6.6l2,6l2.5,3.2l0.5,3.2l1.9,0.8l0.1,2l-1.7,4.6l-0.5,3.1l-0.2,1.8l1.5,4.2l0.3,5.1l-0.8,2.3l0.6,0.8
	l1.4,0.8l0.3,2.7l-5.3-0.3l-6.5,0.6l-24.4,2.8l-9.9,1.3l-0.2,2.7l1.7,1.7l2.5,1.8l0.5,7.6l-5.3,2.4l-2.6-0.3l2.6-1.8v-0.9l-2.9-5.7
	l-2.2-0.6l-1.4,4.2l-1.2,2.6l-0.6-0.2L624.3,455.6L624.3,455.6z"/>
<path class="st1" d="M642.3,404.6l4.2-11h1.6l4.5,11h-1.7l-1.3-3.3H645l-1.2,3.3H642.3z M645.5,400.1h3.7l-1.2-3.1
	c-0.4-0.9-0.6-1.7-0.8-2.3c-0.1,0.7-0.3,1.4-0.6,2.1L645.5,400.1z M653.7,404.6v-11h1.5v9.7h5.4v1.3H653.7z"/>
<path class="st0" d="M602,454.4l-3.1-3l1-5.2l-0.6-0.9l-8.8,1l-23.9,0.4l-0.7-2.3l0.9-8l3.1-5.7l4.8-8.3l-0.5-2.3l1.2-0.7l0.4-1.8
	l-2.2-2l-0.1-1.8l-1.7-4.1l-0.2-6l-52.9,0.9l0,9.1l0.7,8.9l0.7,3.7l2.4,3.9l0.9,4.8l4.1,5.2l0.2,3l0.7,0.7l-0.7,8l-2.9,4.8l1.5,2
	l-0.7,2.4l-0.7,7l-1.3,3l0.1,3.4l4.5-1.5l11.5,0.2l9.9,3.4l6.2,1.1l3.6-1.4l3.1,1.1l3.1,0.9l0.8-2l-3.1-1.1l-2.5,0.5l-2.6-1.5
	c0,0,0.2-1.2,0.8-1.4c0.6-0.2,2.9-0.9,2.9-0.9l1.7,1.4l1.7-0.9l3.1,0.6l1.4,2.3l0.3,2.2l4.3,0.3l1.7,1.7l-0.8,1.5l-1.2,0.8l1.5,1.5
	l8,3.4l3.4-1.2l0.9-2.3l2.5-0.6l1.7-1.4l1.2,0.9l0.8,2.8l-2.2,0.8l0.6,0.6l3.2-1.2l2.2-3.2l0.8-0.5l-2-0.3l0.8-1.5l-0.2-1.4l2-0.5
	l1.1-1.2l0.6,0.8c0,0-0.2,2.9,0.6,2.9c0.8,0,4,0.6,4,0.6l3.8,1.9l0.9,1.4h2.8l1.1,0.9l2.2-2.9v-1.4h-1.2l-3.3-2.6l-5.6-0.8l-3.1-2.2
	l1.1-2.6l2.2,0.3l0.2-0.6l-1.7-0.9v-0.5h3.1l1.7-2.9l-1.2-1.8l-0.3-2.6l-1.4,0.2l-1.8,2l-0.6,2.5l-2.9-0.6l-0.9-1.7l1.7-1.8l1.8-3.3
	l-1-2.3L602,454.4L602,454.4z"/>
<path class="st1" d="M539.9,442.7v-11h1.5v9.7h5.4v1.3H539.9z M547.3,442.7l4.2-11h1.6l4.5,11H556l-1.3-3.3h-4.6l-1.2,3.3H547.3z
	 M550.5,438.2h3.7l-1.2-3.1c-0.4-0.9-0.6-1.7-0.8-2.3c-0.1,0.7-0.3,1.4-0.6,2.1L550.5,438.2z"/>
<path class="st0" d="M624.5,454.6l-0.3,1.2h-4.9L618,455l-2-0.3l-6.5,1.9l-1.7-0.8l-2.5,4l-1,0.7l-1.1-2.4l-1.1-3.7l-3.3-3l1.1-5.3
	l-0.7-0.9l-1.8,0.2l-7.5,0.8l-23.4,0.4l-0.7-2.1l0.8-8l3-5.4l5-8.7l-0.4-2.3l1.2-0.6l0.4-1.8l-2.2-2l-0.1-2l-1.8-3.9l-0.1-5.7
	l1.3-2.4l-0.2-3.3l-1.7-2.9l1.4-1.4l-1.5-2.4l0.4-1.6l1.5-6.2l2.4-1.9l-0.6-2.3l3.5-5.1l2.7-1.3l-0.2-1.6l-0.3-1.6l2.7-5.3l2.2-1.2
	l0.1-0.8l35.6-3.7l0.2,6l0.2,15.8l-0.8,29.6l-0.2,13.4l2.6,17.8L624.5,454.6L624.5,454.6z"/>
<path class="st1" d="M589.7,407.4v-11h2.2l2.6,7.8c0.2,0.7,0.4,1.3,0.5,1.6c0.1-0.4,0.3-1,0.6-1.8l2.6-7.7h2v11h-1.4v-9.2l-3.2,9.2
	h-1.3l-3.2-9.4v9.4H589.7z M602.1,403.8l1.4-0.1c0.1,0.6,0.2,1,0.5,1.4c0.2,0.4,0.6,0.6,1.1,0.9c0.5,0.2,1.1,0.3,1.7,0.3
	c0.6,0,1-0.1,1.5-0.2c0.4-0.2,0.7-0.4,0.9-0.7c0.2-0.3,0.3-0.6,0.3-0.9c0-0.3-0.1-0.6-0.3-0.9c-0.2-0.3-0.5-0.5-1-0.7
	c-0.3-0.1-1-0.3-2-0.5c-1-0.2-1.7-0.5-2.1-0.7c-0.5-0.3-0.9-0.6-1.2-1c-0.3-0.4-0.4-0.9-0.4-1.4c0-0.6,0.2-1.1,0.5-1.6
	c0.3-0.5,0.8-0.9,1.4-1.1c0.6-0.2,1.3-0.4,2-0.4c0.8,0,1.5,0.1,2.2,0.4c0.6,0.3,1.1,0.6,1.4,1.2c0.3,0.5,0.5,1.1,0.5,1.7l-1.4,0.1
	c-0.1-0.7-0.3-1.2-0.8-1.6c-0.4-0.4-1.1-0.5-1.9-0.5c-0.9,0-1.5,0.2-1.9,0.5c-0.4,0.3-0.6,0.7-0.6,1.2c0,0.4,0.1,0.7,0.4,1
	c0.3,0.3,1,0.5,2.2,0.8c1.2,0.3,2,0.5,2.4,0.7c0.6,0.3,1.1,0.7,1.4,1.1c0.3,0.5,0.5,1,0.5,1.6c0,0.6-0.2,1.1-0.5,1.7
	c-0.3,0.5-0.8,0.9-1.5,1.2c-0.6,0.3-1.3,0.4-2.1,0.4c-1,0-1.8-0.1-2.5-0.4c-0.7-0.3-1.2-0.7-1.6-1.3
	C602.3,405.2,602.1,404.6,602.1,403.8z"/>
<path class="st0" d="M565,207.3l0.3,2.7l2.1,0.5l0.9,1.2l0.5,1.8l3.6,3.2l0.7,2.3l-0.7,3.3l-1.5,3.1l-0.8,2.6l-2.1,1.5l-1.6,0.5
	l-5.3,1.8l-1.3,3.7l0.7,1.3l1.8,1.6l-0.3,3.8l-1.7,1.5l-0.7,1.6l0.1,2.6l-1.8,0.4l-1.5,1l-0.3,1.3l0.3,2l-1.5,1.1l-2.4-3l-1.2-2.3
	l-62.7,2.4l-0.9,0.2l-2-4.3l-0.2-6.3l-1.5-3.9l-0.7-5l-2.2-3.5l-0.9-4.6l-2.6-7.2l-1.1-5.1l-1.3-2.1l-1.5-2.6l1.9-4.6l1.3-5.4
	l-2.6-2l-0.4-2.6l0.9-2.4h1.6l78.8-1.2l0.8,4l2.1,1.5l0.2,1.4l-1.9,3.2l0.2,3.1l2.4,3.6l2.4,1.2l2.9,0.5L565,207.3L565,207.3z"/>
<path class="st1" d="M516.3,221.6v-11h1.5v11H516.3z M519.1,221.6l4.2-11h1.6l4.5,11h-1.7l-1.3-3.3h-4.6l-1.2,3.3H519.1z
	 M522.3,217.1h3.7l-1.2-3.1c-0.4-0.9-0.6-1.7-0.8-2.3c-0.1,0.7-0.3,1.4-0.6,2.1L522.3,217.1z"/>
<path class="st3" d="M475.4,140l-0.4-8l-1.7-7l-1.8-12.8l-0.4-9.3l-1.7-3.3l-1.5-4.8V85l0.7-3.7l-1.7-5.2l28.8,0l0.3-7.9l0.6-0.2
	l2.2,0.5l1.8,0.8l0.8,5.2l1.4,5.8L504,82h4.6l0.3,1.4l6,0.3v2h4.6l0.3-1.2l1.1-1.1l2.2-0.6l1.2,0.9h2.8l3.7,2.5l5.1,2.3l2.3,0.4
	l0.5-0.9l1.4-0.5l0.5,2.7l2.5,1.2l0.5-0.5l1.2,0.2v2l2.5,0.9h3l1.5-0.8l3.1-3.1l2.5-0.4l0.8,1.7l0.5,1.2h0.9l0.9-0.8l8.5-0.3
	l1.7,2.9h0.6l0.7-1l4.2-0.4l-0.6,2.2l-3.8,1.8l-8.8,3.8l-4.6,1.9l-2.9,2.5l-2.3,3.4l-2.2,3.7l-1.7,0.8l-4.3,4.8l-1.2,0.2l-4.1,2.6
	l-2.3,3l-0.2,3l0.1,7.7l-1.3,1.6l-4.8,3.6l-2.1,5.7l2.7,2.1l0.6,3.1l-1.8,3.1l0.2,3.6l0.4,6.4l2.9,2.9h3.2l1.8,3l3.2,0.5l3.7,5.4
	l6.8,3.9l2,2.7l0.6,6.1l-77.5,1.1l-0.3-34l-0.4-2.8l-3.9-3.3l-1.1-1.7v-1.5l2-1.5l1.3-1.3L475.4,140L475.4,140z"/>
<path class="st1" d="M492.9,145.2v-11h2.2l2.6,7.8c0.2,0.7,0.4,1.3,0.5,1.6c0.1-0.4,0.3-1,0.6-1.8l2.6-7.7h2v11H502v-9.2l-3.2,9.2
	h-1.3l-3.2-9.4v9.4H492.9z M505.7,145.2v-11h1.5l5.8,8.7v-8.7h1.4v11h-1.5l-5.8-8.7v8.7H505.7z"/>
<path class="st0" d="M384.9,322.7l-15.9-1.2l-0.8,10.4l19.5,1.1l30.6,1.2l-2.2,23.2l-0.4,17l0.2,1.5l4.1,3.5l2,1.1l0.7-0.2l0.7-2
	l1.3,1.7h2v-1.3l2.6,1.3l-0.4,3.7l3.9,0.2l2.4,1.1l3.9,0.6l2.4,1.8l2.2-2l3.3,0.7l2.4,3.3h0.9v2.2l2.2,0.7l2.2-2.2l1.8,0.7h2.4
	l0.9,2.4l6,2l1.3-0.7l1.7-3.9h1.1l1.1,2l3.9,0.7l3.5,1.3l2.8,0.9l1.7-0.9l0.7-2.4h4.1l2,0.9l2.6-2h1.1l0.7,1.5h3.9l1.5-2l1.7,0.4
	l2,2.4l3.1,1.7l3,0.9l1.9,1.1l-0.4-35.4l-1.3-10.4l-0.1-8.4l-1.4-6.2l-0.7-6.8l-0.1-3.6l-11.6,0.3l-44.3-0.4l-43-2L384.9,322.7
	L384.9,322.7z"/>
<path class="st1" d="M452.3,352.8c0-1.8,0.5-3.3,1.5-4.3c1-1,2.3-1.6,3.8-1.6c1,0,1.9,0.2,2.8,0.7c0.8,0.5,1.4,1.2,1.9,2
	c0.4,0.9,0.6,1.9,0.6,3c0,1.1-0.2,2.1-0.7,3c-0.5,0.9-1.1,1.6-1.9,2c-0.8,0.5-1.7,0.7-2.7,0.7c-1,0-2-0.3-2.8-0.8
	c-0.8-0.5-1.4-1.2-1.9-2.1C452.5,354.7,452.3,353.8,452.3,352.8z M453.8,352.8c0,1.3,0.4,2.4,1.1,3.1c0.7,0.8,1.6,1.1,2.7,1.1
	c1.1,0,2-0.4,2.7-1.2c0.7-0.8,1.1-1.9,1.1-3.3c0-0.9-0.2-1.7-0.5-2.3c-0.3-0.7-0.7-1.2-1.3-1.6c-0.6-0.4-1.2-0.6-2-0.6
	c-1,0-1.9,0.4-2.7,1.1C454.2,350,453.8,351.2,453.8,352.8z M464.7,358.2v-11h1.5v5.5l5.5-5.5h2l-4.6,4.5l4.8,6.6h-1.9l-3.9-5.6
	l-1.8,1.8v3.8H464.7z"/>
<path class="st4" d="M366.9,332l21.7,1l29.6,1.1l-2.2,22.3l-0.3,17.3l0.1,2l4.1,3.7l1.9,1.4l1.1-0.5l0.4-1.7l1.1,1.7l2,0v-1.4
	l1.6,0.9l1.1,0.4l-0.3,3.8l3.9,0.1l2.8,1.1l3.8,0.5l2.3,2l2-2l3.6,0.6l2.1,3.1l1,0.3l-0.1,1.9l2.1,0.7l2.2-2l2,0.6l2.1,0l0.9,2.3
	l6,2l1.5-0.7l1.4-4h0.3l0.9,0.1l1.2,2l3.8,0.6l3.2,1.1l3.3,1.1l1.8-0.9l0.7-2.4l4.3,0l1.7,0.9l2.7-2l1.1,0l0.8,1.5h3.9l1.5-1.9
	l1.8,0.4l1.9,2.3l3.3,1.9l2.7,0.8l1.5,0.8l2.3,1.9l2.9-1.3l2.6,1.1l0.5,5.8l0,9.2l0.7,9.1l0.7,3.4l2.6,4.2l0.9,4.7l4,5.3l0.2,3
	l0.7,0.7l-0.7,8l-2.7,4.8l1.5,2l-0.6,2.2l-0.6,7l-1.4,3.2l0.3,3.3l-5.4,1.5l-9.4,4.3l-0.9,1.8l-2.5,1.8l-2,1.4l-1.2,0.8l-5.4,5.1
	l-2.6,2l-5.1,3.1l-5.4,2.3l-6,3.2l-1.7,1.4l-5.6,3.4l-3.2,0.6l-3.7,5.2l-3.8,0.3l-0.9,1.8l2.2,1.8l-1.4,5.2l-1.2,4.3l-1.1,3.7
	l-0.8,4.3l0.8,2.3l1.7,6.6l0.9,5.9l1.7,2.6l-0.9,1.4l-2.9,1.8l-5.4-3.7l-5.3-1.1l-1.2,0.5l-3.1-0.6l-4-2.9l-4.9-1.1l-7.2-3.2l-2-3.7
	l-1.2-6.2l-3.1-1.8l-0.6-2.1l0.6-0.6l0.3-3.2l-1.2-0.6l-0.6-0.9l1.2-4.2l-1.5-2.2l-3.1-1.2l-3.2-4.2l-3.4-6.3l-4-2.5l0.2-1.9
	l-5.1-11.7l-0.8-4l-1.7-1.8l-0.2-1.4l-5.7-5.1l-2.5-2.9V473l-2.5-2l-6.5-1.1l-7.1-0.6l-2.9-2.2l-4.3,1.7l-3.4,1.4l-2.1,3.1l-0.9,3.5
	l-4.2,5.8l-2.3,2.3l-2.5-0.9l-1.7-1.1l-1.8-0.6l-3.7-2.2v-0.6l-1.7-1.8l-4.9-2l-7.1-7.4l-2.2-4.5v-7.7l-3.1-6.2l-0.5-2.6l-1.5-0.9
	l-1.1-2l-4.8-2l-1.2-1.5l-6.8-7.5l-1.2-3.1l-4.5-2.2l-1.4-4.2l-2.5-2.8l-1.9-0.5l-0.6-4.5l7.6,0.7l27.7,2.6l27.7,1.5l2.1-18.5
	l3.7-52.9l1.5-17.8l1.3,0 M462.5,550.6l-0.5-6.8l-2.6-6.8l-0.5-6.7l1.5-7.8l3.1-6.5l3.3-5.1l3-3.4l0.6,0.2l-4.5,6.3l-4.2,6.2
	l-1.9,6.3l-0.3,4.9l0.8,5.9l2.5,6.8l0.5,4.9l0.2,1.4L462.5,550.6L462.5,550.6z"/>
<path class="st5" d="M366.9,332l21.7,1l29.6,1.1l-2.2,22.3l-0.3,17.3l0.1,2l4.1,3.7l1.9,1.4l1.1-0.5l0.4-1.7l1.1,1.7l2,0v-1.4
	l1.6,0.9l1.1,0.4l-0.3,3.8l3.9,0.1l2.8,1.1l3.8,0.5l2.3,2l2-2l3.6,0.6l2.1,3.1l1,0.3l-0.1,1.9l2.1,0.7l2.2-2l2,0.6l2.1,0l0.9,2.3
	l6,2l1.5-0.7l1.4-4h0.3l0.9,0.1l1.2,2l3.8,0.6l3.2,1.1l3.3,1.1l1.8-0.9l0.7-2.4l4.3,0l1.7,0.9l2.7-2l1.1,0l0.8,1.5h3.9l1.5-1.9
	l1.8,0.4l1.9,2.3l3.3,1.9l2.7,0.8l1.5,0.8l2.3,1.9l2.9-1.3l2.6,1.1l0.5,5.8l0,9.2l0.7,9.1l0.7,3.4l2.6,4.2l0.9,4.7l4,5.3l0.2,3
	l0.7,0.7l-0.7,8l-2.7,4.8l1.5,2l-0.6,2.2l-0.6,7l-1.4,3.2l0.3,3.3l-5.4,1.5l-9.4,4.3l-0.9,1.8l-2.5,1.8l-2,1.4l-1.2,0.8l-5.4,5.1
	l-2.6,2l-5.1,3.1l-5.4,2.3l-6,3.2l-1.7,1.4l-5.6,3.4l-3.2,0.6l-3.7,5.2l-3.8,0.3l-0.9,1.8l2.2,1.8l-1.4,5.2l-1.2,4.3l-1.1,3.7
	l-0.8,4.3l0.8,2.3l1.7,6.6l0.9,5.9l1.7,2.6l-0.9,1.4l-2.9,1.8l-5.4-3.7l-5.3-1.1l-1.2,0.5l-3.1-0.6l-4-2.9l-4.9-1.1l-7.2-3.2l-2-3.7
	l-1.2-6.2l-3.1-1.8l-0.6-2.1l0.6-0.6l0.3-3.2l-1.2-0.6l-0.6-0.9l1.2-4.2l-1.5-2.2l-3.1-1.2l-3.2-4.2l-3.4-6.3l-4-2.5l0.2-1.9
	l-5.1-11.7l-0.8-4l-1.7-1.8l-0.2-1.4l-5.7-5.1l-2.5-2.9V473l-2.5-2l-6.5-1.1l-7.1-0.6l-2.9-2.2l-4.3,1.7l-3.4,1.4l-2.1,3.1l-0.9,3.5
	l-4.2,5.8l-2.3,2.3l-2.5-0.9l-1.7-1.1l-1.8-0.6l-3.7-2.2v-0.6l-1.7-1.8l-4.9-2l-7.1-7.4l-2.2-4.5v-7.7l-3.1-6.2l-0.5-2.6l-1.5-0.9
	l-1.1-2l-4.8-2l-1.2-1.5l-6.8-7.5l-1.2-3.1l-4.5-2.2l-1.4-4.2l-2.5-2.8l-1.9-0.5l-0.6-4.5l7.6,0.7l27.7,2.6l27.7,1.5l2.1-18.5
	l3.7-52.9l1.5-17.8l1.3,0 M462.5,550.6l-0.5-6.8l-2.6-6.8l-0.5-6.7l1.5-7.8l3.1-6.5l3.3-5.1l3-3.4l0.6,0.2l-4.5,6.3l-4.2,6.2
	l-1.9,6.3l-0.3,4.9l0.8,5.9l2.5,6.8l0.5,4.9l0.2,1.4L462.5,550.6L462.5,550.6z"/>
<path class="st1" d="M419.1,440.9v-9.7h-3.6v-1.3h8.7v1.3h-3.6v9.7H419.1z M424.6,440.9l4.3-5.7l-3.8-5.3h1.7l2,2.8
	c0.4,0.6,0.7,1,0.9,1.4c0.2-0.4,0.5-0.8,0.9-1.3l2.2-2.9h1.6l-3.9,5.2l4.2,5.8h-1.8l-2.8-3.9c-0.2-0.2-0.3-0.5-0.5-0.7
	c-0.2,0.4-0.4,0.7-0.5,0.8l-2.8,3.8H424.6z"/>
<path class="st0" d="M296.9,421l-0.7-4.5l8.2,0.5l28.8,2.8l26,1.6l2.1-17.8l3.7-53.2l1.6-18.5l1.5,0.1l0.8-10.6l-99.2-10.1
	l-16.7,114.6l14.7,1.9l1.2-9.5L296.9,421L296.9,421z"/>
<path class="st1" d="M297,373.8v-11h1.5l5.8,8.7v-8.7h1.4v11h-1.5l-5.8-8.7v8.7H297z M308.1,373.8v-11h2.2l2.6,7.8
	c0.2,0.7,0.4,1.3,0.5,1.6c0.1-0.4,0.3-1,0.6-1.8l2.6-7.7h2v11h-1.4v-9.2l-3.2,9.2h-1.3l-3.2-9.4v9.4H308.1z"/>
<path class="st0" d="M506.6,326.1l-12.1,0.2l-44-0.4l-42.5-1.9l-23.5-1.2l3.7-61.5l21.1,0.7l38.4,0.8l42.3,1h4.9l2.1,2.1l1.9,0
	l1.6,1l-0.1,2.9l-1.8,1.7l-0.3,2.1l1.8,3.2l2.8,3l2.2,1.5l1.2,10.7L506.6,326.1L506.6,326.1z"/>
<path class="st1" d="M432.4,294.9v-11h1.5v5.5l5.5-5.5h2l-4.6,4.5l4.8,6.6h-1.9l-3.9-5.6l-1.8,1.8v3.8H432.4z M442.3,291.4l1.4-0.1
	c0.1,0.6,0.2,1,0.5,1.4c0.2,0.4,0.6,0.6,1.1,0.9c0.5,0.2,1.1,0.3,1.7,0.3c0.6,0,1-0.1,1.5-0.2c0.4-0.2,0.7-0.4,0.9-0.7
	c0.2-0.3,0.3-0.6,0.3-0.9c0-0.3-0.1-0.6-0.3-0.9c-0.2-0.3-0.5-0.5-1-0.7c-0.3-0.1-1-0.3-2-0.5c-1-0.2-1.7-0.5-2.1-0.7
	c-0.5-0.3-0.9-0.6-1.2-1c-0.3-0.4-0.4-0.9-0.4-1.4c0-0.6,0.2-1.1,0.5-1.6c0.3-0.5,0.8-0.9,1.4-1.1c0.6-0.3,1.3-0.4,2-0.4
	c0.8,0,1.5,0.1,2.2,0.4c0.6,0.3,1.1,0.6,1.4,1.2c0.3,0.5,0.5,1.1,0.5,1.7l-1.4,0.1c-0.1-0.7-0.3-1.2-0.8-1.6
	c-0.4-0.4-1.1-0.5-1.9-0.5c-0.9,0-1.5,0.2-1.9,0.5c-0.4,0.3-0.6,0.7-0.6,1.2c0,0.4,0.1,0.7,0.4,1c0.3,0.3,1,0.5,2.2,0.8
	c1.2,0.3,2,0.5,2.4,0.7c0.6,0.3,1.1,0.7,1.4,1.1c0.3,0.5,0.5,1,0.5,1.6c0,0.6-0.2,1.1-0.5,1.7c-0.3,0.5-0.8,0.9-1.5,1.2
	c-0.6,0.3-1.3,0.4-2.1,0.4c-1,0-1.8-0.1-2.5-0.4c-0.7-0.3-1.2-0.7-1.6-1.3C442.5,292.8,442.3,292.1,442.3,291.4z"/>
<path class="st0" d="M365.8,153.7L264,140.9l-13.5,84.2l108,12.9L365.8,153.7L365.8,153.7z"/>
<path class="st1" d="M294,191.5l-2.9-11h1.5l1.7,7.2c0.2,0.8,0.3,1.5,0.5,2.3c0.3-1.2,0.4-1.9,0.5-2l2.1-7.4h1.8l1.6,5.6
	c0.4,1.4,0.7,2.7,0.9,3.9c0.1-0.7,0.3-1.5,0.5-2.4l1.7-7.1h1.5l-3,11h-1.4l-2.3-8.4c-0.2-0.7-0.3-1.1-0.3-1.3
	c-0.1,0.5-0.2,0.9-0.3,1.3l-2.3,8.4H294z M309.7,191.5v-4.7l-4.2-6.4h1.8l2.2,3.3c0.4,0.6,0.8,1.2,1.1,1.9c0.3-0.6,0.7-1.2,1.2-1.9
	l2.1-3.2h1.7l-4.4,6.4v4.7H309.7z"/>
<path class="st0" d="M374.3,71.6L345,68.9l-27.9-3.4l-27.9-3.8l-30.9-5.1l-17.6-3.2l-31.2-6.6l-4.3,20.3l3.3,7.2l-1.3,4.4L209,83
	l3.1,1.3l4.4,10.2l2.6,3l0.4,1.1l3.3,1.1l0.4,2l-6.8,16.8v2.4l2.4,3h0.9l4.6-2.8l0.7-1.1l1.5,0.7l-0.2,5l2.6,12l2.8,2.4l0.9,0.7
	l1.7,2.2l-0.4,3.3l0.7,3.3l1.1,0.9l2.2-2.2h2.6l3.1,1.5l2.4-0.9h3.9l3.5,1.5l2.6-0.4l0.4-2.8l2.8-0.7l1.3,1.3l0.4,3l1.4,0.8L264,141
	l101.8,12.8L374.3,71.6L374.3,71.6z"/>
<path class="st1" d="M285.3,108.6v-11h2.2l2.6,7.8c0.2,0.7,0.4,1.3,0.5,1.6c0.1-0.4,0.3-1,0.6-1.8l2.6-7.7h2v11h-1.4v-9.2l-3.2,9.2
	h-1.3l-3.2-9.4v9.4H285.3z M301,108.6v-9.7h-3.6v-1.3h8.7v1.3h-3.6v9.7H301z"/>
<path class="st0" d="M384.6,322.9l4.7-82.2l-108.2-12l-11.7,83.7L384.6,322.9L384.6,322.9z"/>
<path class="st1" d="M327.1,276.7l1.5,0.4c-0.3,1.2-0.9,2.1-1.7,2.7c-0.8,0.6-1.8,0.9-2.9,0.9c-1.2,0-2.2-0.2-2.9-0.7
	c-0.7-0.5-1.3-1.2-1.7-2.1c-0.4-0.9-0.6-1.9-0.6-3c0-1.1,0.2-2.1,0.7-3c0.4-0.9,1.1-1.5,1.9-1.9c0.8-0.4,1.7-0.7,2.7-0.7
	c1.1,0,2,0.3,2.8,0.8c0.8,0.6,1.3,1.4,1.6,2.4l-1.4,0.3c-0.3-0.8-0.6-1.4-1.1-1.8s-1.1-0.5-1.8-0.5c-0.8,0-1.6,0.2-2.1,0.6
	c-0.6,0.4-1,1-1.2,1.6c-0.2,0.7-0.3,1.4-0.3,2.1c0,0.9,0.1,1.8,0.4,2.5c0.3,0.7,0.7,1.2,1.3,1.6c0.6,0.3,1.2,0.5,1.9,0.5
	c0.8,0,1.5-0.2,2.1-0.7C326.5,278.3,326.9,277.6,327.1,276.7z M329.9,275.2c0-1.8,0.5-3.3,1.5-4.3c1-1,2.3-1.6,3.8-1.6
	c1,0,1.9,0.2,2.8,0.7c0.8,0.5,1.4,1.2,1.9,2c0.4,0.9,0.6,1.9,0.6,3c0,1.1-0.2,2.1-0.7,3c-0.5,0.9-1.1,1.6-1.9,2
	c-0.8,0.5-1.7,0.7-2.7,0.7c-1,0-2-0.3-2.8-0.8c-0.8-0.5-1.4-1.2-1.9-2.1C330.1,277,329.9,276.1,329.9,275.2z M331.4,275.2
	c0,1.3,0.4,2.4,1.1,3.1c0.7,0.8,1.6,1.1,2.7,1.1c1.1,0,2-0.4,2.7-1.2c0.7-0.8,1.1-1.9,1.1-3.3c0-0.9-0.2-1.7-0.5-2.3
	c-0.3-0.7-0.7-1.2-1.3-1.6c-0.6-0.4-1.2-0.6-2-0.6c-1,0-1.9,0.4-2.7,1.1C331.8,272.3,331.4,273.5,331.4,275.2z"/>
<path class="st0" d="M163.9,184.4l8.1-32.6l1.3-4.5l2.4-5.1l-0.7-1.3l-2.4-0.1l-1.2-1.6l0.4-1.2l0.3-2.9l1.5-2.1l2.9-3.5l1.7-1
	l1.1-1.1l1.3-2.7l3.7-5.5l3.7-4.1l0.2-3.6l-3.3-2.5l-1.5-4.2l13-60.3l12.9,2.4l-4.2,20.3l3.4,7.1l-1.5,4.4l1.9,4.4l3,1.2l3.7,9.1
	l3.3,4.2l0.5,1.1l3.2,1.1l0.4,2l-6.7,16.5l-0.1,2.4l2.5,3.1l0.9,0l4.7-2.9l0.7-1l1.5,0.6l-0.3,5.1l2.6,12l3.7,3l1.6,2.1l-0.3,3.4
	l0.7,3.2l1,1l2.4-2.2l2.7,0l2.8,1.3l2.6-0.7l3.6-0.1l3.8,1.5l2.6-0.3l0.5-2.9l2.8-0.7l1.2,1.4l0.4,2.8l1.4,1.2l-8.3,50.8
	c0,0-37.9-7-44.6-8.4L163.9,184.4z"/>
<path class="st1" d="M200.4,158.1v-11h1.5v11H200.4z M204.4,158.1v-11h3.8c0.9,0,1.5,0.1,2,0.2c0.6,0.1,1.2,0.4,1.6,0.8
	c0.6,0.5,1,1.1,1.3,1.9c0.3,0.8,0.4,1.6,0.4,2.6c0,0.8-0.1,1.6-0.3,2.2c-0.2,0.6-0.4,1.2-0.8,1.6c-0.3,0.4-0.6,0.8-1,1
	c-0.4,0.2-0.8,0.4-1.3,0.5c-0.5,0.1-1.1,0.2-1.8,0.2H204.4z M205.9,156.8h2.4c0.7,0,1.3-0.1,1.7-0.2c0.4-0.1,0.7-0.3,1-0.6
	c0.3-0.3,0.6-0.8,0.8-1.4c0.2-0.6,0.3-1.3,0.3-2.1c0-1.2-0.2-2-0.6-2.7c-0.4-0.6-0.8-1-1.4-1.2c-0.4-0.2-1-0.2-1.9-0.2h-2.3V156.8z"
	/>
<path class="st0" d="M269.6,312.5l-79.9-11.3l19.6-107.1l44.6,8.3l-1.4,10.1l-2.2,12.5l7.4,0.9l15.7,1.7l7.8,0.8L269.6,312.5z"/>
<path class="st1" d="M231,256.1h1.5v6.4c0,1.1-0.1,2-0.4,2.6c-0.3,0.7-0.7,1.2-1.4,1.6c-0.7,0.4-1.5,0.6-2.6,0.6
	c-1,0-1.9-0.2-2.5-0.5c-0.7-0.4-1.1-0.9-1.4-1.5c-0.3-0.7-0.4-1.6-0.4-2.8v-6.4h1.5v6.4c0,1,0.1,1.7,0.3,2.1c0.2,0.5,0.5,0.8,0.9,1
	c0.4,0.2,1,0.4,1.6,0.4c1.1,0,1.8-0.2,2.3-0.7c0.5-0.5,0.7-1.4,0.7-2.8V256.1z M237.7,267.1v-9.7h-3.6v-1.3h8.7v1.3h-3.6v9.7H237.7z
	"/>
<path class="st0" d="M160.3,381.6l-2.5,2.1l-0.3,1.4l0.5,0.9l18,10.2l11.6,7.2l14,8.2l16.1,9.5l11.7,2.3l23.8,2.6l16.5-113.4
	l-79.9-11.3l-2.9,15.6l-1.5,0l-1.6,2.5l-2.4-0.1l-1.2-2.6l-2.6-0.3l-0.9-1.1h-0.9l-0.9,0.5l-1.8,1l-0.1,6.6l-0.2,1.6l-0.5,12
	l-1.4,2.1l-0.5,3.2l2.6,4.7l1.2,5.6l0.7,1l1,0.5l-0.1,2.2l-1.5,1.3l-3.3,1.6l-1.8,1.8l-1.4,3.5l-0.5,4.7l-2.7,2.6l-2,0.7l0.1,0.8
	l-0.4,1.6l0.4,0.8l3.5,0.5l-0.6,2.6l-1.4,2.1L160.3,381.6L160.3,381.6z"/>
<path class="st1" d="M201.9,370.1l4.2-11h1.6l4.5,11h-1.7l-1.3-3.3h-4.6l-1.2,3.3H201.9z M205,365.6h3.7l-1.1-3.1
	c-0.4-0.9-0.6-1.7-0.8-2.3c-0.1,0.7-0.3,1.4-0.6,2.1L205,365.6z M212.5,370.1v-1.4l5.6-7.1c0.4-0.5,0.8-0.9,1.1-1.3h-6.2v-1.3h7.9
	v1.3l-6.2,7.7l-0.7,0.8h7v1.3H212.5z"/>
<path class="st0" d="M209.4,194l-22.5,122.6l-1.8,0.4l-1.5,2.3h-2.3l-1.4-2.6l-2.5-0.4l-0.7-1l-1-0.1l-2.6,1.6l-0.3,6.5l-0.4,5.5
	l-0.3,8.2l-1.4,2l-2.3-1l-65.9-99.2l18.1-64.3L209.4,194L209.4,194z"/>
<path class="st1" d="M142.4,246.4v-11h1.5l5.8,8.7v-8.7h1.4v11h-1.5l-5.8-8.7v8.7H142.4z M156.7,246.4l-4.3-11h1.6l2.9,8
	c0.2,0.6,0.4,1.2,0.6,1.8c0.2-0.6,0.4-1.2,0.6-1.8l3-8h1.5l-4.3,11H156.7z"/>
<path class="st0" d="M163.9,184.5l8.4-33.1l1-4l2.3-5.3l-0.6-1.1l-2.4-0.1l-1.2-1.6l0.4-1.4l0.5-3.1l4.2-5.2l1.7-1l1.1-1.1l1.4-3.4
	l3.8-5.4l3.4-3.7l0.2-3.3l-3.1-2.3l-1.7-4.4l-12.1-3.4L157,98l-14.7,0.1l-0.4-1.3l-5.2,2l-4.3-0.6l-2.3-1.5l-1.2,0.7l-4.5-0.2
	l-1.6-1.3l-5-2L117,94l-4.1-1.4l-1.9,1.7l-5.9-0.3l-5.7-3.9l0.7-0.8l0.2-7.4l-2.2-3.7l-3.9-0.6l-0.7-2.4l-2.2-0.4l-5.5,2l-2.1,6.2
	l-3.1,9.5l-3.1,6.2L72.6,112l-6.2,12.9l-7.7,12l-1.8,2.8l-0.8,8.2l0.4,11.5L163.9,184.5L163.9,184.5z"/>
<path class="st1" d="M104.1,134.5c0-1.8,0.5-3.3,1.5-4.3c1-1,2.3-1.6,3.8-1.6c1,0,1.9,0.2,2.8,0.7c0.8,0.5,1.4,1.2,1.9,2
	c0.4,0.9,0.6,1.9,0.6,3c0,1.1-0.2,2.1-0.7,3c-0.5,0.9-1.1,1.6-1.9,2c-0.8,0.5-1.7,0.7-2.7,0.7c-1,0-2-0.2-2.8-0.8
	c-0.8-0.5-1.4-1.2-1.9-2.1C104.3,136.3,104.1,135.4,104.1,134.5z M105.6,134.5c0,1.3,0.4,2.4,1.1,3.1c0.7,0.8,1.6,1.1,2.7,1.1
	c1.1,0,2-0.4,2.7-1.2c0.7-0.8,1.1-1.9,1.1-3.3c0-0.9-0.2-1.7-0.5-2.3c-0.3-0.7-0.7-1.2-1.3-1.6c-0.6-0.4-1.2-0.6-2-0.6
	c-1,0-1.9,0.4-2.7,1.1C106,131.6,105.6,132.8,105.6,134.5z M116.6,139.8v-11h4.9c1,0,1.7,0.1,2.2,0.3c0.5,0.2,0.9,0.5,1.2,1
	c0.3,0.5,0.5,1.1,0.5,1.7c0,0.8-0.3,1.4-0.8,2c-0.5,0.5-1.3,0.9-2.3,1c0.4,0.2,0.7,0.4,0.9,0.5c0.4,0.4,0.8,0.9,1.2,1.5l1.9,3h-1.8
	l-1.5-2.3c-0.4-0.7-0.8-1.2-1.1-1.5s-0.5-0.6-0.7-0.7c-0.2-0.1-0.4-0.2-0.7-0.3c-0.2,0-0.4-0.1-0.8-0.1h-1.7v4.9H116.6z
	 M118.1,133.7h3.1c0.7,0,1.2-0.1,1.6-0.2c0.4-0.1,0.7-0.4,0.9-0.7c0.2-0.3,0.3-0.6,0.3-1c0-0.5-0.2-0.9-0.6-1.3
	c-0.4-0.3-1-0.5-1.8-0.5h-3.5V133.7z"/>
<path class="st0" d="M119.4,24.6l4.1,1.4l9.3,2.6l8.2,1.8l19.1,5.4l21.9,5.4l14.5,3l-13,60.5l-11.9-3.4l-14.8-3.4l-14.5,0l-0.4-1.3
	l-5.3,2.1l-4.4-0.7l-2-1.5l-1.3,0.6l-4.5-0.1l-1.6-1.3l-5-2L117,94l-4.2-1.5l-1.8,1.7l-6-0.3l-5.7-3.9l0.7-0.9l0.1-7.3l-2.2-3.7
	l-3.9-0.6l-0.7-2.4l-2.2-0.4L87.9,76l-2.2-3.1l0.3-2.8l2.6-0.3l1.5-3.8l-2.5-1.1l0.2-3.5l4.2-0.6l-2.6-2.6l-1.4-6.8l0.6-2.8v-7.5
	L87,38l2.1-8.9l2,0.5l2.3,2.8l2.6,2.5l3.1,1.8l4.3,2l2.9,0.6l2.8,1.4l3.2,0.9l2.2-0.2v-2.3l1.2-1.1l2-1.2l0.3,1.1l0.3,1.7l-2.2,0.5
	l-0.3,2l1.7,1.4l1.1,2.3l0.6,1.9l1.4-0.2l0.2-1.2l-0.9-1.2l-0.5-3.1l0.8-1.7l-0.6-1.4v-2.1l1.7-3.4l-1.1-2.5l-2.3-4.6l0.3-0.8
	L119.4,24.6L119.4,24.6z M110.4,30.3l1.9-0.1l0.5,1.3l1.5-1.5h2.2l0.8,1.5l-1.5,1.6l0.6,0.8l-0.7,1.9l-1.3,0.4c0,0-0.8,0.1-0.8-0.2
	c0-0.3,1.4-2.5,1.4-2.5l-1.6-0.5l-0.3,1.4l-0.7,0.6l-1.5-2.2L110.4,30.3L110.4,30.3z"/>
<path class="st1" d="M131.3,69.9l-2.9-11h1.5l1.7,7.2c0.2,0.8,0.3,1.5,0.5,2.3c0.3-1.2,0.4-1.9,0.5-2l2.1-7.4h1.8l1.6,5.6
	c0.4,1.4,0.7,2.7,0.9,3.9c0.1-0.7,0.3-1.5,0.5-2.4l1.7-7.1h1.5l-3,11h-1.4l-2.3-8.4c-0.2-0.7-0.3-1.1-0.3-1.3
	c-0.1,0.5-0.2,0.9-0.3,1.3l-2.3,8.4H131.3z M142.2,69.9l4.2-11h1.6l4.5,11h-1.7l-1.3-3.3h-4.6l-1.2,3.3H142.2z M145.4,65.4h3.7
	l-1.2-3.1c-0.4-0.9-0.6-1.7-0.8-2.3c-0.1,0.7-0.3,1.4-0.6,2.1L145.4,65.4z"/>
<path class="st0" d="M160.1,381.1l3.7-0.5l1.4-1.9l0.5-2.8l-3.4-0.5l-0.5-0.7l0.4-1.9l-0.1-0.5l1.8-0.6l2.9-2.7l0.5-4.8l1.3-3.2
	l1.9-2.1l3.3-1.5l1.6-1.5l0.1-2l-1-0.5l-1-1l-1.1-5.6l-2.6-4.6l0.5-3.3l-2.3-1l-65.9-99.1l18-64.3l-64-15l-1.4,4.5l-0.2,7.1
	l-4.9,11.2l-2.9,2.5l-0.3,1.1l-1.7,0.8l-1.4,4l-0.8,3.1l2.6,4l1.5,4l1.1,3.4l-0.3,6.2l-1.7,2.9l-0.6,5.5l-0.9,3.5l1.7,3.7l2.6,4.3
	l2.2,4.6l1.2,3.8l-0.3,3.1l-0.3,0.4v2l5.4,6l-0.5,2.3l-0.6,2.2l-0.6,1.9l0.2,7.8l2,3.5l1.8,2.5l2.6,0.5l0.9,2.6l-1.1,3.4l-2,1.5
	h-1.1L58,283l0.5,2.8l3.1,4.2l1.5,5.1l1.4,4.5l1.2,2.9l3.2,5.5l1.4,2.5l0.5,2.8l1.5,0.9v2.3l-0.8,1.8l-1.7,6.8l-0.5,1.8l2.3,2.6
	l4,0.5l4.3,1.7l3.7,2h2.8l2.8,2.9l2.5,4.6l1.1,2.2l3.7,2l4.6,0.8l1.4,2l0.6,3.1l-1.4,0.6l0.3,0.9l3.1,0.8l2.6,0.2l3-1.6l3.7,4
	l0.8,2.2l2.5,4l0.3,3.1v8.9l0.5,1.7l9.6,1.4l18.8,2.6L160.1,381.1L160.1,381.1z M76,339.6l1.2,1.5l-0.2,1.2l-3.1-0.1l-0.5-1.2
	l-0.6-1.4L76,339.6L76,339.6z M77.9,339.6l1.2-0.6l3.4,2l2.9,1.2l-0.8,0.6l-4.3-0.2l-1.5-1.5L77.9,339.6L77.9,339.6z M97.6,358.4
	l1.7,2.2l0.8,0.9l1.5,0.6l0.6-1.4l-0.9-1.7l-2.6-1.9l-1,0.1L97.6,358.4L97.6,358.4z M96.2,366.6l1.7,3l1.2,1.8l-1.4,0.2l-1.2-1.1
	c0,0-0.7-1.4-0.7-1.8v-2.1L96.2,366.6L96.2,366.6z"/>
<path class="st1" d="M95.4,286.6l1.5,0.4c-0.3,1.2-0.9,2.1-1.7,2.7c-0.8,0.6-1.8,0.9-2.9,0.9c-1.2,0-2.2-0.2-2.9-0.7
	c-0.7-0.5-1.3-1.2-1.7-2.1c-0.4-0.9-0.6-1.9-0.6-3c0-1.1,0.2-2.1,0.7-3c0.4-0.9,1.1-1.5,1.9-1.9c0.8-0.4,1.7-0.7,2.7-0.7
	c1.1,0,2,0.3,2.8,0.8c0.8,0.6,1.3,1.4,1.6,2.4l-1.4,0.3c-0.3-0.8-0.6-1.4-1.1-1.8c-0.5-0.4-1.1-0.5-1.8-0.5c-0.8,0-1.6,0.2-2.1,0.6
	c-0.6,0.4-1,1-1.2,1.6c-0.2,0.7-0.3,1.4-0.3,2.1c0,0.9,0.1,1.8,0.4,2.5c0.3,0.7,0.7,1.2,1.3,1.6c0.6,0.3,1.2,0.5,1.9,0.5
	c0.8,0,1.5-0.2,2.1-0.7C94.8,288.2,95.2,287.5,95.4,286.6z M97.4,290.4l4.2-11h1.6l4.5,11h-1.7l-1.3-3.3h-4.6l-1.2,3.3H97.4z
	 M100.6,285.9h3.7l-1.2-3.1c-0.4-0.9-0.6-1.7-0.8-2.3c-0.1,0.7-0.3,1.4-0.6,2.1L100.6,285.9z"/>
<path class="st3" d="M686.7,320.3l-49.5,4.8l-15,1.7l-4.4,0.5l-3.7,0l-0.2,3.9l-7.8,0.3l-6.6,0.6l-7.3-0.2l-1.2,1.3l-0.8,5.6
	l-1.4,5.2l-0.5,2.6l-1.3,4.2l-0.3,2.5l-3.2,2l2,3.1l0,2.3l0.1,2.4l97.4-9.3l0.4-3.8l1.7-1.4l2.7-0.7l0.7-3.5l3.9-2.6l3.9-1.4
	l3.9-3.4l4.2-1.9l0.5-2.9l3.9-3.8l0.5-0.1c0,0,0,1.1,0.8,1.1c0.8,0,1.8,0.3,1.8,0.3l2.2-3.4l2-0.6l2.2,0.3l1.5-3.4l2.8-2.5l0.4-1.8
	l0.3-3.5l-2-0.2l-2.5,1.9h-6.7l-17.5,2.3L686.7,320.3L686.7,320.3z"/>
<path class="st1" d="M639.3,342.8V333h-3.6v-1.3h8.7v1.3h-3.6v9.7H639.3z M645.9,342.8v-11h1.5l5.8,8.7v-8.7h1.4v11h-1.5l-5.8-8.7
	v8.7H645.9z"/>
<path class="st0" d="M588.5,343.9l-3.8,0.7l-4.9-0.6l0.4-1.5l2.9-2.4l0.9-3.5l-1.7-2.8l-74.8,2.4l1.5,6.5v7.8l1.3,10.4l0.2,36
	l2.2,1.9l2.8-1.3l2.6,1.1l0.7,6.2l53.1-1.1l1.1-2l-0.3-3.4l-1.8-2.8l1.5-1.4l-1.5-2.4l0.7-2.4l1.3-5.3l2.4-2l-0.7-2.2l3.5-5.1
	l2.6-1.3l-0.1-1.4l-0.3-1.7l2.7-5.3l2.3-1.2l0.1-3.2l0-2.4l-2-3.1l3.2-2l0.3-2.5l1.3-4.2L588.5,343.9L588.5,343.9z"/>
<path class="st1" d="M533.2,374l4.2-11h1.6l4.5,11h-1.7l-1.3-3.3H536l-1.2,3.3H533.2z M536.4,369.5h3.7l-1.2-3.1
	c-0.4-0.9-0.6-1.7-0.8-2.3c-0.1,0.7-0.3,1.4-0.6,2.1L536.4,369.5z M544.7,374v-11h4.9c1,0,1.7,0.1,2.2,0.3c0.5,0.2,0.9,0.5,1.2,1
	c0.3,0.5,0.5,1.1,0.5,1.7c0,0.8-0.3,1.4-0.8,2c-0.5,0.5-1.3,0.9-2.3,1c0.4,0.2,0.7,0.4,0.9,0.5c0.4,0.4,0.8,0.9,1.2,1.5l1.9,3h-1.8
	l-1.5-2.3c-0.4-0.7-0.8-1.2-1.1-1.5c-0.3-0.4-0.5-0.6-0.7-0.7c-0.2-0.1-0.4-0.2-0.7-0.3c-0.2,0-0.4-0.1-0.8-0.1h-1.7v4.9H544.7z
	 M546.2,367.8h3.1c0.7,0,1.2-0.1,1.6-0.2c0.4-0.1,0.7-0.4,0.9-0.7c0.2-0.3,0.3-0.6,0.3-1c0-0.5-0.2-0.9-0.6-1.3
	c-0.4-0.3-1-0.5-1.8-0.5h-3.5V367.8z"/>
<path class="st3" d="M823.2,257.6l-5.7,1.1l-4.9,0.1l-1.8-6.6l-1.8-8.7l-2.4-5.9l-1.2-4.2l-7.1,1.5l-14.2,2.7l-35.7,7.2l1.1,4.8
	l0.9,5.4l0.3-0.3l2-2.3l2.2-2.5l2.3-0.6l1.4-1.4l1.7-2.5l1.2,0.6l2.8-0.3l2.5-2l1.9-1.4l1.8-0.5l1.6,1.1l2.8,1.4l1.9,1.7l1.1,1.5
	l3.9,1.6v2.7l5.2,1.2l1.1,0.5l1.4-1.9l2.7,1.9l-1.2,2.4l-0.7,3.8l-1.7,2.5v2l0.6,1.7l4.8,1.3l4.1-0.1l2.9,0.9l2,0.3l0.9-2l-1.4-2
	v-1.7l-2.3-2l-2-5.2l1.2-5.1l-0.2-2l-1.2-1.2c0,0,1.4-1.5,1.4-2.1c0-0.6,0.5-2,0.5-2l1.8-1.2l1.8-1.5l0.5,0.9l-1.4,1.5l-1.2,3.5
	l0.3,1.1l1.7,0.3l0.5,5.2l-2,0.9l0.3,3.4l0.5-0.2l1.1-1.8l1.5,1.7l-1.5,1.2l-0.3,3.2l2.5,3.2l3.7,0.4l1.5-0.8l3.1,4l1.3,0.5l6.3-2.7
	l1.9-3.8L823.2,257.6L823.2,257.6z M807.9,266.2l1.1,2.4l0.2,1.7l1.1,1.8c0,0,0.8-0.8,0.8-1.1c0-0.3-0.7-2.9-0.7-2.9l-0.7-2.2
	L807.9,266.2L807.9,266.2z"/>
<path class="st2" d="M790.5,242.7l45.9,31.8L790.5,242.7L790.5,242.7z"/>
<path class="st1" d="M843.2,279.9v-9.2h1.8l2.2,6.5c0.2,0.6,0.3,1.1,0.4,1.4c0.1-0.3,0.3-0.8,0.5-1.5l2.2-6.4h1.6v9.2h-1.2v-7.7
	l-2.7,7.7H847l-2.7-7.9v7.9H843.2z M854,279.9v-9.2h3.2c0.7,0,1.3,0,1.6,0.1c0.5,0.1,1,0.3,1.4,0.7c0.5,0.4,0.8,0.9,1.1,1.6
	c0.2,0.6,0.4,1.4,0.4,2.2c0,0.7-0.1,1.3-0.2,1.9c-0.2,0.5-0.4,1-0.6,1.3c-0.3,0.4-0.5,0.6-0.8,0.8c-0.3,0.2-0.7,0.4-1.1,0.5
	c-0.4,0.1-0.9,0.2-1.5,0.2H854z M855.2,278.8h2c0.6,0,1.1-0.1,1.4-0.2c0.3-0.1,0.6-0.3,0.8-0.5c0.3-0.3,0.5-0.7,0.7-1.2
	c0.2-0.5,0.2-1.1,0.2-1.8c0-1-0.2-1.7-0.5-2.2c-0.3-0.5-0.7-0.9-1.2-1c-0.3-0.1-0.9-0.2-1.6-0.2h-1.9V278.8z"/>
<path class="st0" d="M809.7,234.7l0.4-2l0.3-1.6l-1.5,0.4l-1.5,0.4l-2.1,1.7l1.6,4.8l2.2,5.4l2,9.2l1.5,6l4.8-0.2l5.9-1.1l-2.2-7
	l-0.9,0.5l-3.4-2.3l-1.7-4.5l-1.8-3.4l-3-2.7l-0.8-2L809.7,234.7L809.7,234.7z"/>
<path class="st2" d="M843.5,248.1l-25.7,4.5L843.5,248.1L843.5,248.1z"/>
<path class="st1" d="M846.7,248.2v-9.4h3.2c0.7,0,1.3,0,1.7,0.1c0.5,0.1,1,0.3,1.4,0.7c0.5,0.4,0.9,1,1.1,1.6
	c0.2,0.6,0.4,1.4,0.4,2.2c0,0.7-0.1,1.3-0.2,1.9c-0.2,0.5-0.4,1-0.6,1.4c-0.3,0.4-0.5,0.6-0.9,0.9c-0.3,0.2-0.7,0.4-1.1,0.5
	c-0.4,0.1-0.9,0.2-1.5,0.2H846.7z M848,247.1h2c0.6,0,1.1-0.1,1.5-0.2c0.4-0.1,0.6-0.3,0.8-0.5c0.3-0.3,0.5-0.7,0.7-1.2
	c0.2-0.5,0.2-1.1,0.2-1.8c0-1-0.2-1.7-0.5-2.3c-0.3-0.5-0.7-0.9-1.2-1.1c-0.3-0.1-0.9-0.2-1.6-0.2h-2V247.1z M856.2,248.2v-9.4h6.8
	v1.1h-5.5v2.9h5.2v1.1h-5.2v3.2h5.8v1.1H856.2z"/>
<path class="st0" d="M813.5,196.8l-2.2,2.6v2.9l-1.9,2.9l-0.2,1.5l1.2,1.2l-0.2,2.3l-2.2,1.1l0.8,2.6l0.2,1.1l2.6,0.3l0.9,2.5
	l3.4,2.3l2.3,1.5v0.8l-2.9,2.6l-1.5,2.2l-1.4,2.6l-2.2,1.2l-0.4,1.5l-0.2,1.1l-0.6,2.5l1,2.1l3.1,2.8l4.6,2.2l3.8,0.6l0.2,1.4
	l-0.8,0.9l0.3,2.6h0.8l2-2.3l0.8-4.6l2.6-3.8l2.9-6.2l1.1-5.2l-0.6-1.1l-0.2-8.9l-1.5-3.2l-1.1,0.8l-2.6,0.3l-0.5-0.5l1.1-0.9l2-1.8
	l0.1-1l-0.4-3.3l0.5-2.6l-0.1-1.9l-2.7-1.7l-4.9-1.1l-4-1.3L813.5,196.8L813.5,196.8z"/>
<path class="st2" d="M824.9,221.1l26.4,0.2L824.9,221.1L824.9,221.1z"/>
<path class="st1" d="M855,222.7v-8.8h1.2l4.6,6.9v-6.9h1.1v8.8h-1.2l-4.6-6.9v6.9H855z M863.3,220.2l1.1-0.1c0,0.7,0.2,1.1,0.4,1.4
	c0.2,0.2,0.5,0.4,0.9,0.4c0.3,0,0.5-0.1,0.8-0.2c0.2-0.1,0.4-0.3,0.4-0.5c0.1-0.2,0.1-0.6,0.1-1.1v-6.1h1.2v6c0,0.7-0.1,1.3-0.3,1.7
	c-0.2,0.4-0.5,0.7-0.8,0.9c-0.4,0.2-0.8,0.3-1.4,0.3c-0.8,0-1.4-0.2-1.8-0.7C863.5,221.7,863.3,221.1,863.3,220.2z"/>
<path class="st0" d="M588,88.5l-2.2,0.5l-5.1,3.7l-2.1,0.8l-1.8,2l1.5,1.1l2-0.9l3.1-1.8l4.9-4.9L588,88.5L588,88.5z M598.7,102.1
	l-4.5,0.4l-4.1,2.3l-2.2,2.1l-1.2,1.7l-1.7,0.7l-1.8,2.8l-0.2,1.2l-4.2,2l-2.3,1.9l-5.7,0.9l-0.6,0.6v0.9l-3.4,2.2l-2.6,0.8
	l-0.7,0.6l3.6,4.9l7.5,1.1l7.9,2.1l2.7,1l11.5,2.6l2,2.1l3.4,1.3l1.8,9.8l1.3,1l1.1,1l3-6.7l0.9-3.8l1.8-4.2l0.8-0.1l1.1,1.5h0.6
	l4.3-2.3l1.4,1.5l0.4,0.2l1.2-1.1l1.1-2.9l2.3-0.8l6.6-0.6l1.8-2.5l4.9-0.2l5.5,1.2h1.7l3.1-1.4l2.2,0.2l2-0.6l3.6,0.4l0.8,0.3
	l1.2-0.3l-1.2-0.9l-1.2-0.6l-3.1-2.9V117l-1.4-0.5l-1.1,1.1l-5.9,1.5l-1.8,0.4l-2.8-0.7l-0.5-0.3v-5.4l-1.4-0.2l-2.5,1.2l-4.3,1.8
	l-6.3,0.3l-3.2,1.1l-3.8,3.4l-1.6,0.9h-1.1l-1.2,0.8l-1.6-0.4l-1.5-1.3l-1.4,0.9l-3.7,0.2l-2.6-2.6l-1.4-2.9l-1.4-1l-3.1-0.9h-2.2
	l-1.2-1.2l-3.4,2.8L590,117l-0.8-0.5l0.3-2.4l2.3-3.1l0.5-2.3l2.2-0.8l1.4-2.9l3.6-0.9l0.3-0.9L598.7,102.1L598.7,102.1z
	 M662.1,124.1l-2.1,0.2l-1.5,0.2l-0.3,1.1l1,0.4l0.6,2.4l3.1,0.1l1.2-1.1c0,0-0.1-1.4-0.4-1.6C663.1,125.4,662.6,124.8,662.1,124.1
	L662.1,124.1z M646.6,133l-2.8,1.7l-2.8,2.2l0.3,3.4l0.9,0.3l2,0.5l0.4,0.8l-2.4,0.8l-2.5,0.3l-1.4,1.7l-0.3,2l0.3,1.5l0.3,5.2
	l-3.4,2l-0.6-0.2v-4l1.2-2.3l0.6-2.3l-0.8-0.8l-1.8,0.8l-0.9,4l-2.6,1.1l-1.7,1.9l-0.2,0.9l0.6,0.8l-0.6,2.5l-2.2,0.5v1.1l0.8,2.3
	l-1.1,5.9l-1.5,3.8l0.6,4.5l0.5,1.1l-0.8,2.3l-0.3,0.8l-0.3,2.6l3.4,5.7l2.8,6.2l1.4,4.6l-0.8,4.4l-0.9,5.7l-2.3,4.9l-0.3,2.6
	l-3.1,2.9l4.2-0.1l20.5-2.1l6.9-1l0.1,1.6l6.5-1.1l9.8-1.5l3.7-0.4l0.1-0.6l0.2-1.4l2-3.5l1.9-1.6l-0.2-4.8l1.5-1.5l1-0.3l0.2-3.4
	l1.4-2.9l1,0.6l0.2,0.6l0.8,0.2l1.9-0.9l-0.3-9.1l-3.1-7.9l-2.2-8.6l-2.3-3.1l-2.5-1.7l-1.5,1.1l-3.7,1.7l-1.9,4.8l-2.6,3.5
	l-1.1,0.6l-1.4-0.6c0,0-2.5-1.4-2.3-2c0.1-0.6,0.5-4.8,0.5-4.8l3.2-1.2l0.7-3.2l0.6-2.5l2.3-1.5l-0.3-9.5l-1.6-2.2l-1.2-0.8l-0.8-2
	l0.8-0.8l1.5,0.3l0.2-1.6L667,142l-1.3-2.4h-2.5l-4.3-1.4l-5.2-3.2h-2.6l-0.6,0.6l-0.9-0.4L646.6,133L646.6,133z"/>
<path class="st1" d="M645.1,191.3v-11h2.2l2.6,7.8c0.2,0.7,0.4,1.3,0.5,1.6c0.1-0.4,0.3-1,0.6-1.8l2.6-7.7h2v11h-1.4v-9.2l-3.2,9.2
	h-1.3l-3.2-9.4v9.4H645.1z M658.2,191.3v-11h1.5v11H658.2z"/>
<path class="st6" d="M791.8,258.4l45.3,34.3"/>
<path class="st1" d="M842.2,300.8V292h3c0.7,0,1.2,0,1.6,0.1c0.5,0.1,0.9,0.3,1.3,0.6c0.5,0.4,0.8,0.9,1,1.5
	c0.2,0.6,0.4,1.3,0.4,2.1c0,0.7-0.1,1.3-0.2,1.8c-0.2,0.5-0.4,0.9-0.6,1.3c-0.2,0.3-0.5,0.6-0.8,0.8c-0.3,0.2-0.6,0.3-1.1,0.4
	c-0.4,0.1-0.9,0.2-1.4,0.2H842.2z M843.3,299.8h1.9c0.6,0,1-0.1,1.4-0.2c0.3-0.1,0.6-0.3,0.8-0.5c0.3-0.3,0.5-0.6,0.6-1.1
	c0.2-0.5,0.2-1,0.2-1.7c0-0.9-0.2-1.6-0.5-2.1c-0.3-0.5-0.7-0.8-1.1-1c-0.3-0.1-0.8-0.2-1.5-0.2h-1.9V299.8z M857.4,297.7l1.2,0.3
	c-0.2,1-0.7,1.7-1.3,2.2c-0.6,0.5-1.4,0.8-2.3,0.8c-1,0-1.7-0.2-2.3-0.6c-0.6-0.4-1.1-1-1.4-1.7c-0.3-0.7-0.5-1.5-0.5-2.4
	c0-0.9,0.2-1.7,0.5-2.4c0.4-0.7,0.9-1.2,1.5-1.6c0.7-0.4,1.4-0.5,2.1-0.5c0.9,0,1.6,0.2,2.2,0.7c0.6,0.4,1,1.1,1.3,1.9l-1.2,0.3
	c-0.2-0.6-0.5-1.1-0.9-1.4c-0.4-0.3-0.9-0.4-1.5-0.4c-0.7,0-1.2,0.2-1.7,0.5c-0.5,0.3-0.8,0.8-1,1.3c-0.2,0.5-0.3,1.1-0.3,1.7
	c0,0.8,0.1,1.4,0.3,2c0.2,0.6,0.6,1,1,1.3c0.5,0.3,1,0.4,1.5,0.4c0.7,0,1.2-0.2,1.7-0.6C856.9,299,857.2,298.5,857.4,297.7z"/>
<path class="st3" d="M796.5,256.1c0,1.5-0.6,3-1.7,4c-1.1,1.1-2.5,1.7-4,1.7s-3-0.6-4-1.7s-1.7-2.5-1.7-4c0-1.5,0.6-3,1.7-4
	c1.1-1.1,2.5-1.7,4-1.7c1.5,0,3,0.6,4,1.7C795.9,253.2,796.5,254.6,796.5,256.1L796.5,256.1z"/>
<path class="st3" d="M485.8,246.5l3.1,6.7l-0.1,2.2l3.3,5.2l2.6,3h-4.8l-41.5-0.9l-38.9-0.9l-21.2-0.7l1.1-20.4l-30.7-3.5l4-41.1
	l14.8,1l19.2,1.1l17,1.1l22.7,1.1l10.2-0.4l2,2.2l4.6,2.8l1.1,0.9l4.1-1.3l3.7-0.4l2.6-0.2l1.7,1.3l3.9,1.5l2.8,1.5l0.4,1.5l0.9,2
	h1.7l0.8,0l0.8,4.5l2.8,8.1l0.5,3.6l2.4,3.6l0.5,4.9l1.5,4L485.8,246.5L485.8,246.5z"/>
<path class="st1" d="M421.5,233.2v-11h1.5l5.8,8.7v-8.7h1.4v11h-1.5l-5.8-8.7v8.7H421.5z M432.7,233.2v-11h8v1.3h-6.5v3.4h6.1v1.3
	h-6.1v3.8h6.8v1.3H432.7z"/>
<path class="st3" d="M476.6,211.6l-0.1-0.5l-2.7-4.6l1.8-4.5l1.4-5.6l-2.7-2l-0.4-2.6l0.8-2.4h3l-0.1-4.8l-0.3-28.7l-0.6-3.6
	l-3.9-3.2l-0.9-1.6l-0.1-1.5l1.9-1.4l1.5-1.6l0.2-2.5l-55.6-1.5l-52.3-3.3l-5.1,60.6l13.9,0.9l19,1.1l16.9,0.9l22.7,1.2l11.4-0.4
	l1.9,2.1l5,3.1l0.7,0.7l4.3-1.4l6.2-0.6l1.6,1.3l4,1.5l2.8,1.5l0.4,1.4l1,2.1L476.6,211.6L476.6,211.6z"/>
<path class="st1" d="M413.5,167.9l1.4-0.1c0.1,0.6,0.2,1,0.5,1.4c0.2,0.4,0.6,0.6,1.1,0.9c0.5,0.2,1.1,0.3,1.7,0.3
	c0.6,0,1-0.1,1.5-0.2c0.4-0.2,0.7-0.4,0.9-0.7c0.2-0.3,0.3-0.6,0.3-0.9c0-0.3-0.1-0.6-0.3-0.9c-0.2-0.3-0.5-0.5-1-0.7
	c-0.3-0.1-1-0.3-2-0.5c-1-0.2-1.7-0.5-2.1-0.7c-0.5-0.3-0.9-0.6-1.2-1c-0.3-0.4-0.4-0.9-0.4-1.4c0-0.6,0.2-1.1,0.5-1.6
	c0.3-0.5,0.8-0.9,1.4-1.1c0.6-0.3,1.3-0.4,2-0.4c0.8,0,1.5,0.1,2.2,0.4c0.6,0.3,1.1,0.6,1.4,1.2c0.3,0.5,0.5,1.1,0.5,1.7l-1.4,0.1
	c-0.1-0.7-0.3-1.2-0.8-1.6c-0.4-0.4-1.1-0.5-1.9-0.5c-0.9,0-1.5,0.2-1.9,0.5c-0.4,0.3-0.6,0.7-0.6,1.2c0,0.4,0.1,0.7,0.4,1
	c0.3,0.3,1,0.5,2.2,0.8c1.2,0.3,2,0.5,2.4,0.7c0.6,0.3,1.1,0.7,1.4,1.1c0.3,0.5,0.5,1,0.5,1.6c0,0.6-0.2,1.1-0.5,1.7
	c-0.3,0.5-0.8,0.9-1.5,1.2c-0.6,0.3-1.3,0.4-2.1,0.4c-1,0-1.8-0.1-2.5-0.4c-0.7-0.3-1.2-0.7-1.6-1.3
	C413.7,169.3,413.5,168.6,413.5,167.9z M424.3,171.4v-11h3.8c0.9,0,1.5,0.1,2,0.2c0.6,0.1,1.2,0.4,1.6,0.8c0.6,0.5,1,1.1,1.3,1.9
	c0.3,0.8,0.4,1.6,0.4,2.6c0,0.8-0.1,1.6-0.3,2.2c-0.2,0.6-0.4,1.2-0.8,1.6c-0.3,0.4-0.6,0.8-1,1c-0.4,0.2-0.8,0.4-1.3,0.5
	c-0.5,0.1-1.1,0.2-1.8,0.2H424.3z M425.7,170.1h2.4c0.7,0,1.3-0.1,1.7-0.2c0.4-0.1,0.7-0.3,1-0.6c0.3-0.3,0.6-0.8,0.8-1.4
	c0.2-0.6,0.3-1.3,0.3-2.1c0-1.2-0.2-2-0.6-2.7c-0.4-0.6-0.8-1-1.4-1.2c-0.4-0.2-1-0.2-1.9-0.2h-2.3V170.1z"/>
<path class="st3" d="M475.5,140.1l-0.6-8l-1.6-6.5l-1.8-12.4l-0.4-10.4l-1.6-2.9l-1.7-4.9l0-9.9l0.6-3.6l-1.8-5.2l-27.3-0.5
	l-17.7-0.6l-25.3-1.2l-21.9-2l-6.7,63.9l52.4,3.2L475.5,140.1L475.5,140.1z"/>
<path class="st1" d="M414.4,113.3v-11h1.5l5.8,8.7v-8.7h1.4v11h-1.5l-5.8-8.7v8.7H414.4z M425.6,113.3v-11h3.8c0.9,0,1.5,0.1,2,0.2
	c0.6,0.1,1.2,0.4,1.6,0.8c0.6,0.5,1,1.1,1.3,1.9c0.3,0.8,0.4,1.6,0.4,2.6c0,0.8-0.1,1.6-0.3,2.2c-0.2,0.6-0.4,1.2-0.8,1.6
	c-0.3,0.4-0.6,0.8-1,1c-0.4,0.2-0.8,0.4-1.3,0.5c-0.5,0.1-1.1,0.2-1.8,0.2H425.6z M427,112h2.4c0.7,0,1.3-0.1,1.7-0.2
	c0.4-0.1,0.7-0.3,1-0.6c0.3-0.3,0.6-0.8,0.8-1.4c0.2-0.6,0.3-1.3,0.3-2.1c0-1.2-0.2-2-0.6-2.7c-0.4-0.6-0.8-1-1.4-1.2
	c-0.4-0.1-1-0.2-1.9-0.2H427V112z"/>
</svg>